<svg xmlns="http://www.w3.org/2000/svg" width="190.676" height="421.08" viewBox="0 0 190.676 421.08">
  <g id="Group_223" data-name="Group 223" transform="translate(15626 -2016)">
    <g id="head_mono_Shaved-2" data-name="head/mono/Shaved-2" transform="translate(-15564 2016)">
      <path id="_-Background" data-name="ðŸŽ¨-Background" d="M103.995,69.531c-.967-3.482-.828-3.859-2.269-7.185-4.778-9.664-36.707-6.428-39.965,3.218-1.768,5.233-1.353,12.6-1.813,17.141q-.211,3.609-.422,7.218-.074,1.246-.151,2.492-.149,2.426-.286,4.852c-.6,4.984,1.9,5.49,6.2,5.343a17.667,17.667,0,0,0,5.247,6.888c-.548,1.492,1.44,2.264,2.513,2.861,5.837,3.259,13.007,5.247,19.472,3.414,1.9-.538,9.744-2.4,12.157-8.176,1.185-2.835,3.592-17.516.417-30.723Z" transform="translate(-56.951 -46.746)" fill="#fff" fill-rule="evenodd"/>
      <path id="_-Ink" data-name="ðŸ–-Ink" d="M70.635-14.931a2.161,2.161,0,0,1,2.43.788,1.744,1.744,0,0,1,.217.574,20.856,20.856,0,0,1,7.548-.251,1.154,1.154,0,0,1,.684,1.681c-.034.059-.068.116-.105.172a13.148,13.148,0,0,1,2.359.411A1.2,1.2,0,0,1,84.6-10.1c-.022.052-.045.1-.068.156a7.763,7.763,0,0,1,3.427,1.467,1.506,1.506,0,0,1,.331.346,11.481,11.481,0,0,1,6.7,1.322,1.3,1.3,0,0,1,.462,1.761c-.122.173-.249.339-.385.5a4.188,4.188,0,0,1,2.21,1.729A4.038,4.038,0,0,1,97.719.371a2.928,2.928,0,0,1,.755,2.684,2.652,2.652,0,0,1-1.5,1.865,1.318,1.318,0,0,1-.306,1.311,5.169,5.169,0,0,1-1.8,1.213,1.14,1.14,0,0,1-.132.519,4.083,4.083,0,0,1-3.229,2.043c.445,1.87.811,3.763,1.166,5.645C93.3,19,93.792,22.38,94.09,25.774l.036.42a61.544,61.544,0,0,1-.57,17.426,14.115,14.115,0,0,1-6.011,8.708,20.239,20.239,0,0,1-10.48,3.3,22.553,22.553,0,0,1-5.61-.46A15.351,15.351,0,0,1,68.91,54.4a9.648,9.648,0,0,1-2.381-1.474.676.676,0,0,1,.3-1.124c.332-.067.66-.139.99-.2a.5.5,0,0,1,.571.527l.64.165q.32.082.639.168l.318.087a25.738,25.738,0,0,0,2.76.618,20.325,20.325,0,0,0,5.757.075A17.217,17.217,0,0,0,87.444,49.6a12.121,12.121,0,0,0,2.969-3.666,16.51,16.51,0,0,0,1.453-5.793,82.686,82.686,0,0,0-.057-17.273c-.262-2.863-.62-5.72-1-8.571-.2-1.462-.406-2.926-.579-4.393a3.14,3.14,0,0,1-1.086-.526,1.092,1.092,0,0,1-.413-.567,1.426,1.426,0,0,1-.884-.556l-.03-.041A5.381,5.381,0,0,0,85.2,6.473c-.587-.221-1.186-.414-1.781-.611a10.388,10.388,0,0,0-1.927-.59c-.739-.087-1.483.135-2.229.056a2.838,2.838,0,0,1-1.762-.8,2.6,2.6,0,0,1-.436-.575c-2.274.486-4.663-.127-7.026.02-1.554.1-2.926,1.06-4.5,1.034a1.8,1.8,0,0,1-1.146-.421,34.49,34.49,0,0,0-4.382,1.293c-1.377.462-2.7,1.083-4.062,1.587,0,0,0,0,0,0a1.062,1.062,0,0,1-1.272.723c-1.845-.329-3.4-1.493-5.2-1.919-.494,1.8-1.026,3.58-1.389,5.417a53.912,53.912,0,0,0-.8,5.614c-.172,1.889-.254,3.8-.258,5.693,0,.967.023,1.937.056,2.9a7.183,7.183,0,0,1-.112,2.614l-.026.066h0a.171.171,0,0,1-.285.077,5.323,5.323,0,0,1-.835-2.46c-.186-.975-.3-1.96-.4-2.948A40.352,40.352,0,0,1,45.3,17.3,41.179,41.179,0,0,1,47.469,5.544c-.413.038-.6-.57-.624-.912a8.908,8.908,0,0,1,.173-2.111l.122-.715a12.113,12.113,0,0,1,.469-1.99,16.839,16.839,0,0,1,2.334-4.4,17.606,17.606,0,0,1,8-6.019.8.8,0,0,1,.555-.017,43.112,43.112,0,0,1,9.175-3.618C68.647-14.5,69.638-14.753,70.635-14.931ZM46.576,29.11c1.315-.825,4.029-1.041,4.763.717.03.071-.055.134-.117.117l-.179-.045a3,3,0,0,0-1.992.014,3.866,3.866,0,0,0-1.636,1.173,6.723,6.723,0,0,0-.987,4.522l0,.074c.085,1.348.43,2.99,1.748,3.656a4.449,4.449,0,0,0,2.116.307,7.887,7.887,0,0,1,2.46.339.646.646,0,0,1,.283,1.069,3.808,3.808,0,0,1-.382.315c.4.426.794.858,1.175,1.313.646.772,1.333,1.517,2.05,2.224A18.8,18.8,0,0,0,58.1,46.813a18.322,18.322,0,0,1,2.551,1.736,1.167,1.167,0,0,1,0,1.61c-.966,1.188-2.611-.061-3.535-.763l-.112-.085a16.112,16.112,0,0,1-2.65-2.434,13.223,13.223,0,0,1-1.985-3.069,7.447,7.447,0,0,1-.59-1.938,5.633,5.633,0,0,1-5.244-.523C44.561,40,44.007,37.528,44,35.271v-.134C44.015,32.944,44.591,30.354,46.576,29.11Zm3.747,3.179h.061a4.126,4.126,0,0,1,2.005.642l.064.038c.6.359,1.47.647,1.789,1.319a1.031,1.031,0,0,1-.156,1.206,1.647,1.647,0,0,1-2.168.033c-.488-.356-.809-.89-1.287-1.251a3.016,3.016,0,0,0-3.252-.053c-.057.037-.113-.033-.088-.087a3.273,3.273,0,0,1,3.03-1.847Z" transform="translate(-44 15)" fill-rule="evenodd"/>
    </g>
    <g id="pose_standing_robot_dance-2" data-name="pose/standing/robot_dance-2" transform="translate(-15626 2080)">
      <path id="_-Background-2" data-name="ðŸŽ¨-Background" d="M163.49,111.357a41.707,41.707,0,0,0,.594,6.922c-4.537-7.274-11.335-15.224-12.368-24.134a12.471,12.471,0,0,0,2-.407c2.347,1.091,1.9-2.266,2.25-3.819.937-3.287,2.9-6.521,3.76-9.83,2.248-.972-2.266-1.384-2.922-1.4,2.727-3.037,3.981-7.211,5.922-10.754q4.279-9.031,7.689-18.426A58.139,58.139,0,0,1,170.7,61.32C169.762,78.189,163.427,94.41,163.49,111.357ZM320.944,81.392c-1.411.237-3.763.462-5.172.577,1.849-1.1,7.313-3.2,3.87-5.091-1.062-.388-2.2.165-3.272.337a63.282,63.282,0,0,1-14.435.325c1.64-1.346,3.8-3.285,5.4-4.679.85-.74,1.675-1.021.718-2.127-1.686-1.571-4.7-.414-6.651.276a155,155,0,0,1-17.223,8.6c-.06-.809-.023-1.855-.8-2.4-2.287-1.078-3.971-.763-6.405-1.05a71.491,71.491,0,0,1-8.167-1.659c-1.837-1.4-2.958-5.536-5.9-5.074,2.6-6.551-1.364-13.385-2.854-19.657a72.161,72.161,0,0,1-2.863-19.76c-.018-10.686-6.206-18.885-15.146-24.368-3.524-2.381-5.891-8.172-10.255-9.332-.555-2.13-.589-3.066-1.076-5.212-.245-.617-.426-3.962-1.042-3.848-.678-3.314-4.136-4.643-7.128-5.337-3.89-.806-9.319-1.783-12.816.492a4.965,4.965,0,0,0-1.532,3.516A15.963,15.963,0,0,1,206.056-9.2c-1.608-.543-.7-1.556-2.288-1.792-14.52-2.153-30.638,8.5-40.059,18.9C146.632,25.451,132.989,49.4,135.222,74.4c-.6-.089-3.263-.506-3.225.335.131,3.659.8,6.711.989,10.367-.185,4.843,4.845,5.427,8.479,6.621-.224,14.052,4.879,28.108,12.867,39.659,1.941,2.273,4.852,10.16,8.394,7.018.417-.488-2.82-3.872-3.4-4.707-1.966-2.476-7.175-14.738-3.494-17.187.818,2.647,8.743,15.375,10.156,8.15a14.872,14.872,0,0,0,7.219,1.72c4.216,2.285,8.319,4.753,12.369,7.317,1.886,3.706,4.653,7.265,6.97,10.823-16.041,37.066-31.7,98.072-52.34,132.983-1.8,2.28,8.1,6.155,9.85,6.991-3.344,5.432-3.763,11.728-6.307,17.577a2.23,2.23,0,0,0-1.411.259c-3.139,2.126-4.323,9.738-4.5,13.492.145,1.674-.475,4.206.879,5.439a2.275,2.275,0,0,0-.431.711c-.953.742-.835,2.382-.326,3.4,1.792,3.721,14.892,3.376,19.143,4.172a228.63,228.63,0,0,0,42.753.082c1.848-.387.45-3.271-.462-4.054a1.1,1.1,0,0,0,.507-1.327c-3.423-9.793-15.794-9.13-23.279-14.359,1.968-1.139.7-.775-.539-.332a30.7,30.7,0,0,1-3.772-2.78c.908-.561.46-.932-.522-.462-1.549-1.243-2.755-3.163-4.728-3.765-1.932-.474-1.932-1.3-1.932-1.821a136.265,136.265,0,0,0,3.052-14.062c.689,1.016,6.631-7.126,7.9-9.159,4.941-7.828,4.927-15.541,8.385-24.054,7.1-18.538,21.643-57.391,30.512-75.12,20.752,33.829,10.644,79.581,23.446,115.654.569,1.084,1.639,5.148,3.12,3.976.576.135,1.188.207,1.737.285a93.726,93.726,0,0,1-1.109,11.779,2.03,2.03,0,0,0-1.4,1.042c-1.027-.755-2.995,10.38-3.163,11.515,0,1.463-1.263,4.721-.112,5.591-1.659.679-1.93,3.189-.763,4.48,3.465,4.658,20.353,3.378,26.583,4.159,7.879-.2,40.838,2.755,43.127-4.722a3.932,3.932,0,0,0-1.911-4.518c.635-1.482-.885-2.914-1.815-3.954-5.484-5.706-13.915-6.6-21.216-9.088.272-.279-9.53-5.3-11.655-6.546.14-1.687-3.364,0-3.374,0-1.671-2.954-2.855-7.551-3.975-10.738,2.068-.641,7.05-1.211,7.973-3.259,2.968-1-.009-5.3-.624-7.321-17.4-43.543-.892-98.467-26.568-139.564,4.706-2.7,10.106-8.6,5.457-13.548-.93-1.19-3.206-4.9-3.169-4.248-.864-3.528-2.8-9.6-3.4-13.171-2.209-13.1-.761-25.363,1.109-38.589,2.6,9.953,11.542,18.245,20.644,22.792,3.552,1.466,8.242,4.492,12.142,3.538,3.52-1.042,9.912-8.27,10.665-11.741a71.869,71.869,0,0,0,30.718-2.986c1.259-.476,2.748-.436,2.359-2.223-.388-1.517-3.156-1.13-4.346-.848,1.819-1.009,6.541-1.273,6.506-3.91A.829.829,0,0,0,320.944,81.392Z" transform="translate(-131.715 19)" fill="#fff" fill-rule="evenodd"/>
      <path id="_-Ink-2" data-name="ðŸ–-Ink" d="M316.515,100.206a35.487,35.487,0,0,1-10.24,3.093c-.815.082-.826,1.366,0,1.286,2.969-.289,5.947-.564,8.877-1.142.368-.073,2.286-.752,2.392-.109-.423,1.539-8.142,3.11-9.859,3.424-10.167,2.514-20.382.53-30.59.418a5.123,5.123,0,0,0-3.048.028q-.813.026-1.626.074A38.246,38.246,0,0,1,280.618,96c2.456,1.122,9.21-2.251,11.745-3.338,4.233-1.845,8.024-5.864,12.985-5.044-2.392,2.148-5,4.021-7.431,6.121a.929.929,0,0,0,.651,1.571,63.563,63.563,0,0,0,15.806-.554c3.708-.711,3.767-.595.572,1.472-1.69,1.079-3.667,2.1-5.737,1.871-1.13-.032-1.056,1.572,0,1.708a45.527,45.527,0,0,0,9.219-.5,12.822,12.822,0,0,1-1.911.89m-44.843,9.115c-.043.046-.087.091-.13.134l-.061.026c.085-.216.168-.428.247-.635h.008a1.219,1.219,0,0,0-.064.477M247.3,177.182c15.318,42.492,3.017,90.22,20.673,132a1.023,1.023,0,0,0-.342.736c-2.289.221-4.518,1.275-6.806,1.677a93.891,93.891,0,0,1-20.311,1.955l-.006,0a2.093,2.093,0,0,0-.722.006c-1.44-5.623-3.616-11.062-4.686-16.794-11.022-73.625.192-81.156-51-145.019,16.532,11.35,38.535,24.686,58.223,12.91,1.791,4.12,3.522,8.278,4.976,12.53M262.5,323.05a9.538,9.538,0,0,0,.826,1.909c-7.6,8.793-11.4,4.393-20.531,1.755a50.855,50.855,0,0,0-.919-11.93,54.58,54.58,0,0,0,18.416-.639,36.036,36.036,0,0,0,2.208,8.905m5.635,1.244a27.883,27.883,0,0,0,5.055,4.082c-1.19.981-3.855,1.694-4.024,3.377.027,1.521,2.467,1.645,1.882.216,1.029-1.058,2.331-1.812,3.43-2.8,1.119.66,2.267,1.255,3.436,1.8-1.09.87-2.709,1.554-2.949,3.054-.085.732.718,1.073,1.295.986,1.486-.53,2.308-2.307,3.642-3.161,8.079,3.257,17.346,5.265,22.767,12.694a.973.973,0,0,0-.426.415c-2.115-.331-4.282.488-6.4.688a175.946,175.946,0,0,1-19.771,1.814,218.17,218.17,0,0,1-33.291-1.646,27.371,27.371,0,0,1-4.734-1.242c.307-3.862.748-7.793.91-11.707a.712.712,0,0,0,.249-.659,7.215,7.215,0,0,1,.17-2.858c.041-.064.083-.127.13-.187a2.638,2.638,0,0,1,2.313-.849c.069,0,.138.013.208.023a2.039,2.039,0,0,1,.332.215c.045.007.088.011.134.019a.4.4,0,0,1,.083.023c.021-.035.04-.073.058-.112a6.842,6.842,0,0,0,1.572.4c4.115,1.8,8.262,4.071,12.862,3.212,3.5-.568,5.539-3.585,8.073-5.73.9-.823,2.156-1.206,2.991-2.068m34.821,22.352c10.584,7.714-52,4.456-55.437,4.09-3.222-.3-13.261.034-11.411-5.227a1.569,1.569,0,0,0,1.548-.353c11.35,6.749,52.882,6.226,65.3,1.49M211.034,196.692c-.719,1.371-1.48,2.719-2.186,4.1q-.248.484-.489.97-.328.49-.651.979c-3.939,6.059-6.085,13.443-9.348,21.452-8.128,19.945-15.845,43.773-21.676,60.707a83.691,83.691,0,0,1-7.51,13.459c-.66,1.276-2.309,2.313-2.37,3.768l-.054.053-.3.295c-1.552-.814-5.939-.836-7.472-1.35a60.974,60.974,0,0,1-18.813-7.05c15.455-32.322,31.119-78.04,43.88-112.147.862-2.117,1.714-4.238,2.574-6.356,1.268-3.121,2.683-6.221,3.789-9.4a8.762,8.762,0,0,0,.566-3.113c7.117,10.445,14.573,20.723,20.831,31.72a8.473,8.473,0,0,1-.771,1.919M165.019,306.218c-1.175,3.609-2.43,7.233-3.331,10.921a1.458,1.458,0,0,0-.033.476l-.028.074a2.433,2.433,0,0,0-.309,1.152c-8.9,3.9-7.3,8.558-16.566,1.591a10.846,10.846,0,0,0-.973-.5.944.944,0,0,0,.038-.127,19.343,19.343,0,0,0,.421-2.934c.338-1.456.661-2.916,1.027-4.365.484-1.394.975-2.787,1.443-4.183.048-.116.1-.232.145-.348a17.676,17.676,0,0,0,1.544-5.3c.088-.352.171-.706.251-1.059a.748.748,0,0,0,.466-.418c5.31,1.842,10.891,3.345,16.533,3.417-.222.53-.44,1.061-.628,1.6m.96,13.33c1.673.442,2.555,2.09,3.612,3.418a9.543,9.543,0,0,0-2.916,3.37,11.409,11.409,0,0,0-1.277,1.379c-.479.718.612,1.559,1.2.923a18.626,18.626,0,0,1,4.141-4.387,35.326,35.326,0,0,0,2.584,2.534,8.4,8.4,0,0,0-2.086,2.126c-1.068.8-1.934,1.711-1.49,2.432.43.7,1.256.316,1.658-.185a13.734,13.734,0,0,1,3.117-3.34,31.326,31.326,0,0,0,9.7,5.627c4.7,1.748,10.861,3.151,12.669,8.462-7.946.1-15.906.193-23.851-.227-11.608-.381-23.094-2.186-34.648-3.137a.266.266,0,0,0,.013-.338c-.238-.313-.592-.453-.84-.752.316-1.288-.278-3.219-.055-4.4a72.244,72.244,0,0,1,1.276-10.7c.808-1.387,2.384-2.32,3.87-1.319.1.069,6.517,6.258,10.8,4.97a14.58,14.58,0,0,0,3.336-1.9,42.317,42.317,0,0,1,9.192-4.551m32.474,25.765c-19.992,1.148-40.172.891-59.973-2.27a4.331,4.331,0,0,1-1.693-.916c-.043-.5-.075-1-.09-1.5-.008-.257-.152-1.126.126-1.287a.811.811,0,0,0,.327-.335c7.081,2.425,14.836,2.828,22.237,3.8,12.66,1.047,25.6,2.172,38.24,1.1a3.452,3.452,0,0,1,.824,1.413m-61.227-7.145a1.568,1.568,0,0,0,.273.3l-.3-.024a.942.942,0,0,0-.065-.178c.031-.032.061-.065.089-.1m9.058-33.536c.122-.529.262-1.083.39-1.645a11.356,11.356,0,0,1-.5,2.1c.035-.152.071-.3.107-.457M183.043,151.15a.313.313,0,0,0,.055-.054c.16.1.321.2.482.308.512,1.025,1.09,2.038,1.705,3.044-.75-1.089-1.478-2.212-2.242-3.3m-18.787-11c-.032-.309-.083-.622-.145-.932a6.927,6.927,0,0,0,.551.716,6.527,6.527,0,0,0,.539.543c-.313-.115-.627-.226-.945-.327m.036.731c0-.165,0-.332-.015-.5q.26.172.525.336a3.521,3.521,0,0,0-.509.166m-2.414-20.338c-.383,4.3-.82,8.737.277,12.969-4.537-7.409-10.276-13.317-11.31-22.392a2.559,2.559,0,0,0,.871-.415c2.347,1.111,2.751-2.308,3.1-3.89.937-3.348,2.057-6.642,2.913-10.012,2.248-.99-2.266-1.41-2.922-1.43.027-.022.053-.045.078-.07,2.65-3.114,3.928-7.3,5.844-10.884q4.279-9.2,7.688-18.768c2.216,18.584-4.663,36.586-6.537,54.892m-4.171,17.23a23.6,23.6,0,0,1-2.8-4.907c-.108-.257-.353-.561-.68-.517-1.851.248-2.46,2.015-2.426,3.688a39.328,39.328,0,0,0,7.252,17.284c-11.628-11.856-15.8-28.539-18.721-44.4,3.01.833,5.971,2.018,9.092,2.349,1.824,14.843,12.96,19.287,13.327,30.064-.527,2.244-4.478-2.816-5.048-3.566M268.752,91.923a.291.291,0,0,0-.079.031L268.6,92c-.042-.062-.086-.122-.132-.179l.28.105m13.092,3.969a2.225,2.225,0,0,1-1.051-.058c.074-.071.146-.144.221-.214.055-.051.19-.194.357-.351a1.166,1.166,0,0,0,.473.622m38.829,2.3a.831.831,0,0,0-1.029-.784c-1.411.242-2.818.417-4.226.534,1.849-1.123,5.833-3.368,2.39-5.29-1.062-.4-2.324.022-3.395.2a54.126,54.126,0,0,1-13.457.682c1.64-1.371,3.337-2.673,4.938-4.092.85-.754,1.816-1.759.86-2.885-1.686-1.6-5.408-.422-7.357.282-5.378,3.07-10.562,6.334-16.334,8.7-.061-.824.218-1.823-.561-2.376-2.287-1.1-5.1-.777-7.535-1.07A71.012,71.012,0,0,1,266.8,90.25c-1.837-1.428-2.11-5.207-5.048-4.736,2.6-6.672-2.211-13.2-3.7-19.591A74.765,74.765,0,0,1,255.185,45.8c-.017-10.882-6.206-19.237-15.145-24.821-.15-.123-.3-.249-.448-.375q-.58-.611-1.134-1.256c-.778-.908-1.532-1.839-2.322-2.737a12.538,12.538,0,0,0-1.185-1.6,5.438,5.438,0,0,0-1.4-1.271c-.044-.027-.09-.05-.135-.076a8.483,8.483,0,0,0-3.138-1.318c-.534-2.057-1.1-4.1-1.566-6.177-.212-.521-.488-4.3-1.059-3.882-.717,1.816-.063,18.251,3.436,16.1.344,4.275.412,10.416-4.3,12.306-8.257,2.573-18.879-15.9-22.3-22.144.944.364,1.744-1.831,2.145-4.09a16.474,16.474,0,0,0,.417-1.629,4.267,4.267,0,0,0,.154-1.794.522.522,0,0,0-.367-.376c-.063-.357-.17-.594-.326-.657a6.9,6.9,0,0,0-.314.865c-.007.011-.015.022-.022.034a5.508,5.508,0,0,0-.372,1.526,10.551,10.551,0,0,1-.315,1.068,17.356,17.356,0,0,1-1.215,2.466,5.584,5.584,0,0,0-3.458-1.531c-1.222-.139-2.471-.147-3.7-.186a12.9,12.9,0,0,0-3.6.213.074.074,0,0,0-.045.112c-25.375,1.37-51.155,39.324-57.416,60.381-2.385,8.23-3.722,16.923-2.837,25.486-.6-.09-3.263-.516-3.225.342.131,3.727.8,7.411.989,11.135-.185,4.933,4.845,5.528,8.479,6.744-.224,14.313,4.88,28.63,12.866,40.4,1.94,2.315,5.659,9.342,9.2,6.142a.955.955,0,0,0-.189-1.468,9.748,9.748,0,0,1-2-2.471c-1.967-2.522-8.055-14.862-5.5-17.356,1.284,2.743,5.943,10.964,9.6,9.149a2.653,2.653,0,0,0,.843-1.862q.216.054.435.1c1.276,1.131,5.02,2.8,6.375,2.686l1.356.67q1.876,1.057,3.726,2.16c.977.648,1.98,1.247,3,1.819q.886.547,1.766,1.1a21.514,21.514,0,0,0,1.88,3.34c.391.639.83,1.432,1.355,2.124a27.891,27.891,0,0,0,1.884,2.659c.875,1.1,1.968,2.073,2.744,3.246a4.661,4.661,0,0,1,.288,4.185c-.474,1.5-1.151,2.936-1.753,4.383l-1.95,4.7-3.792,9.132q-1.083,2.606-2.13,5.229c-.239.6-.457,1.2-.663,1.809-13.182,30.968-27.243,73.5-41.608,103.367-1.419,1.847,5.454,4.693,9.25,6.226.017.052.032.1.047.157a23.037,23.037,0,0,0-1.179,3.947q-.618,2.41-1.264,4.812c-.431,1.6-.861,3.215-1.274,4.831-.556,1.422-1.115,2.838-1.7,4.228-.023.059-.047.118-.071.177a2.919,2.919,0,0,0-1.924.871.33.33,0,0,0-.163.117c-2.888,3.869-3.846,8.939-4.088,13.667.135,1.416-.408,4.228.7,5.343a2.411,2.411,0,0,0-.5,1.173,3.248,3.248,0,0,0-.071,3.209c1.754,5.137,41.39,5.329,48.094,5.263,5.467-.1,10.9-.422,16.342-.93.844-.179,1.011-.887.857-1.68a3.329,3.329,0,0,0-.917-2.844,1.136,1.136,0,0,0,.1-.957c-3.423-9.974-16.076-9.3-23.561-14.626.1-.06.194-.116.279-.168.164-.057.329-.11.5-.158.786-.226.444-1.47-.338-1.226a11.059,11.059,0,0,0-1.74.707,30.114,30.114,0,0,1-3.008-2.326c.282-.178.568-.347.856-.516a7.27,7.27,0,0,1,1.287-.12.6.6,0,0,0,.5-.934c.045-.028.09-.053.134-.081a1.319,1.319,0,0,0-.2-.015.647.647,0,0,0-.433-.215,5.91,5.91,0,0,0-3.42.723c-1.219-1.2-2.331-2.638-3.973-3.149,1.319-.482,1.937-1.942.268-2.365a4.752,4.752,0,0,0-2.2.509c1.024-4.195,1.794-8.484,2.406-12.747a3.6,3.6,0,0,0,.517.053,1.742,1.742,0,0,0,1.49-1.135l.11-.017c1.254-.528,1.836-1.975,2.7-2.958a71.737,71.737,0,0,0,6.93-11.974c7.129-20.485,17.76-54.564,26.372-73.911,2.757-6.2,5.219-11.839,8.084-17.991,20.751,34.457,10.644,76.743,23.445,113.487.556,1.078,1.589,5.05,3.018,4.122a.269.269,0,0,0,.027.019,5.189,5.189,0,0,0,.827.435.322.322,0,0,0,.346-.088,8.7,8.7,0,0,1,.125,1.633c.034.692.052,1.383.06,2.075q.023,2.056-.109,4.109c-.128,1.163-.276,2.325-.458,3.483a2.9,2.9,0,0,0-1.749,1.031,5.957,5.957,0,0,0-1.051,2.894c-.038.248-.07.493-.086.733-.844,3.237-1.655,7.959-1.761,8.683,0,1.49-1.263,4.809-.112,5.694-1.659.692-1.93,3.248-.763,4.563,3.465,4.745,20.352,3.441,26.582,4.236,7.878-.2,42.956,2.807,45.244-4.809.455-1.738-.325-3.933-1.911-4.6.634-1.51-.885-2.968-1.815-4.027-5.483-5.812-13.513-7.793-20.814-10.323.272-.284,1.921-1.315,1.705-1.582a8.941,8.941,0,0,0-3.454.96c-1.435-.527-2.862-1.09-4.252-1.733,3.961-3.26,1.646-2.256-1.1-.528q-.453-.238-.908-.474a.4.4,0,0,0-.122-.39,4.77,4.77,0,0,0-1.354-.721,13.392,13.392,0,0,1-1.469-.8c-.873-.546-1.607-1.414-2.52-1.868a1.321,1.321,0,0,0-.426-.128c-.59-.534-2.017-.028-2.683.462l-.03-.013a59,59,0,0,1-4.037-9.467c2.068-.653,6.72-.9,7.644-2.986,2.968-1.014.813-5.514.2-7.572-17.4-44.352-.813-97.106-26.487-138.968,4.627-2.7,9.8-9.154,5.556-14.163-.119-.233-.249-.46-.381-.678-.638-1.059-1.324-2.082-1.951-3.147-.032-.135-.06-.272-.08-.413a.452.452,0,0,0-.388-.415c-.629-1.157-1.189-2.344-1.719-3.549a136.257,136.257,0,0,1-1.975-47.03c2.6,10.137,11.028,17.778,20.129,22.41,3.552,1.493,8.242,4.576,12.142,3.6,3.519-1.061,9.911-8.423,10.665-11.959a70.618,70.618,0,0,0,30.717-3.041c1.259-.485,3.711-1.221,3.322-3.041-.388-1.545-2.227-1.218-3.417-.931,1.819-1.027,5.356-1.172,5.32-3.859" transform="translate(-129.997 2.685)" fill-rule="evenodd"/>
    </g>
    <g id="face_Smile" data-name="face/Smile" transform="translate(-15548 2046.654)">
      <path id="_-Ink-3" data-name="ðŸ–-Ink" d="M67.593,81.46a6.348,6.348,0,0,1-2.667-2.052,1.231,1.231,0,0,1-.249-.957,1.381,1.381,0,0,1,.537-.865,1.286,1.286,0,0,1,.963-.261,1.207,1.207,0,0,1,.814.538l.048.066a4.2,4.2,0,0,0,1.54,1.292,3.47,3.47,0,0,0,1.906.335,5.115,5.115,0,0,0,3.106-1.78c.116-.119.233-.242.35-.366a.55.55,0,0,1,.29-.224.625.625,0,0,1,.4.006.636.636,0,0,1,.315.239.584.584,0,0,1,.1.387,4,4,0,0,1-1.321,2.531,5.668,5.668,0,0,1-6.132,1.11ZM71.371,66.4c1.177.716,2.972,2.385,1.7,4.159-1.491,1.565-3.638-.229-4.7-1.041-.981-.629-2.083.988-1.173,1.723,7.644,5.66,10.747-4.654,4.759-5.683C71.307,65.448,71.062,66.182,71.371,66.4Zm-13.7-6.584c.13-1.615,2.59-1.982,2.834-.384a6.541,6.541,0,0,1-.684,4.035,1.2,1.2,0,0,1-2.282-.464A13.015,13.015,0,0,1,57.672,59.82ZM76.394,59.1a1.312,1.312,0,0,1,1.431-.582c1.853.542,1.307,3.173.656,4.453a1.289,1.289,0,0,1-2.013.259c-.842-1-1.245-2.993-.175-3.976A1.347,1.347,0,0,1,76.394,59.1ZM59.8,52.753l.293-.051c.906-.157,2.032-.307,2.672.421a1.058,1.058,0,0,1,0,1.473c-.8.65-1.692.4-2.654.453a10.561,10.561,0,0,0-2.32.4,15.769,15.769,0,0,0-4.475,2.314c-.188.126-.38-.114-.29-.29a9.244,9.244,0,0,1,4.033-3.76A9.976,9.976,0,0,1,59.8,52.753ZM74.7,52.028l.224.046c2.438.51,5.606,1.528,6.761,3.923.044.339,0,.411-.04.459l-.013.016a.316.316,0,0,1-.2.142l-.123-.031a7,7,0,0,1-1.353-.528l-.44-.217a12.113,12.113,0,0,0-1.57-.669,18.488,18.488,0,0,0-3.576-.79,1.467,1.467,0,0,1-.717-.272,1.077,1.077,0,0,1-.4-.611,1.1,1.1,0,0,1,.124-.916,1.161,1.161,0,0,1,.566-.488A1.329,1.329,0,0,1,74.7,52.028Z" transform="translate(-53 -52)" fill-rule="evenodd"/>
    </g>
  </g>
</svg>
