<svg xmlns="http://www.w3.org/2000/svg" width="153.996" height="420" viewBox="0 0 153.996 420">
  <g id="Group_12" data-name="Group 12" transform="translate(-702.375 -1056.733)">
    <g id="pose_standing_crossed_arms-1" data-name="pose/standing/crossed_arms-1" transform="translate(702.375 1119.901)">
      <path id="_-Background" data-name="ðŸŽ¨-Background" d="M257.652,339.11c.869-3.512-.41-6.314-4.081-8.383-.316-.836-7.411-3.546-13.049-7.523a42,42,0,0,1-8.893-8.752,15.654,15.654,0,0,1-1.269-3.845c-.623-5.735-.262-9.494-.647-11.278,2.591-.34,8.959-168.571,7.929-174.146a16.785,16.785,0,0,0,5.084-1.713c.128-.033-.083-.406-.077-.476,4.035-7.92-2.155-34.853-6.034-42.31,3.081-.08,7.138-.5,9.045-3.071a3.125,3.125,0,0,0,1.91-1.646,26.509,26.509,0,0,0,1.394-2.476c2.052-4.264,3.319-9,2.634-13.7.131-.041.8-.046.836-.234a8.767,8.767,0,0,0-.493-3.263,222.932,222.932,0,0,0-13.376-35.948c-2.81-6.191-8.625-8.45-14.65-10.774a71.238,71.238,0,0,0-8.823-3.2c-.038-.212.142-.855-.254-.8-.49.1-.393.889-.574,1.331-6.995-5.726-2.559-8.676-6.776-11.812-4.364-2.265-9.686-2.357-14.5-1.867a3.444,3.444,0,0,0-3.614,2.638,12.674,12.674,0,0,1-9,7.252c-.322-.574-1.208-2.219-1.7-1.7-5.633.192-14.174,2.26-19.447,3.807-5.293,1.352-10.648,3.82-12.033,9.571-2.513,10.248,1.485,52.366,8.042,60.477l.213,0a11.087,11.087,0,0,0,4.533,2.646c-.04,3.792-1.235,7.494-1.83,11.2-1.339,6.726-2.368,13.458-3.86,20.22-.007.753-2.845,11.062-.047,8.995.578.284,1.285.593,1.907.859-2.973,6.775-4.333,17.707-4.122,26.076a60.936,60.936,0,0,1-1.272,14.455C142.484,202.977,135.191,299.708,135.019,301c-.158,1.236.889,7.945,0,9.715-.789,1.571-4.155.643-4.8,1.249-1.672,2.723-.906,4.458-2.278,7.176a15.122,15.122,0,0,0-2.792,2.974c-1.044,1.006-18.341,12.355-17.64,14.078,0,0-.079.826-.105,1.006-1.475,8.58.981,8.509,8.926,9.771,11.606,2.047,20.279-1.892,30.088-7.154,3.259-2.2,7.892-6.395,6.384-11.365-.042-.3-.936-5.532-1.291-8.186q.961-2.126-2.759-1.861c.612-.671,1.956-9.371,1.5-10.522-.291-2.964.161-5.655.018-8.706,1.558.116,28.919-129.594,46.081-137.654.106.862-.1,2.465,1.044,2.626,5.308,41.411,18.071,134.182,18.657,134.344-.88,4.729-.853,15.692-.869,20.386-.135.125-.752.677-.852.811-.021-.035-.423.367-.444.377l-.054-.125c-1.808,4.076-4.443,8.275-2.114,12.269-1.728-.126-1.451,3.2-1.528,4.73.984,2.995,28.969,11.075,35.223,11.459,2.055.359,11.624-2.685,13.465-3.122C261.263,344.833,258.922,340.4,257.652,339.11Z" transform="translate(-106.136 7.013)" fill="#fff" fill-rule="evenodd"/>
      <path id="_-Ink" data-name="ðŸ–-Ink" d="M185.406,5.992a.866.866,0,0,1,.46,1.585l-.026.019A2.943,2.943,0,0,0,184.778,8.9a8.116,8.116,0,0,1-9.188,5.031c1.338,2.5,2.237,4.911,3.576,7.365,6.168,12.7,26.422,16.837,28.845-.594-3.711-.717-5.911-9.063-3.529-11.552l.064.3c.686,3.269,1.156,6.615,3.634,9.08a.766.766,0,0,0,.219.029c.094-.448.2-.89.339-1.324a.989.989,0,0,1,1.934.286,134.8,134.8,0,0,1,14.419,5.7,17.749,17.749,0,0,1,8.974,8.664A227.467,227.467,0,0,1,246.535,65c.229,1.524,2.784,7.189.723,7.734a25.607,25.607,0,0,1-2.786,13.578c-.927,1.575-1.581,3.757-3.444,4.414-1.934,2.429-5.47,3.059-8.413,3.23,3.959,9.32,9.339,33.06,5.7,42.321.323,1.519-3.869,2.241-4.991,2.588a69.594,69.594,0,0,1,.317,16.407c-3.651,46.407-4.344,93.069-.5,139.488q.339,4.34.727,8.678l.156,1.734a62.328,62.328,0,0,1,.325,6.935,1.39,1.39,0,0,1-1.356,1.334c-2.248,1.434-5.268,1.446-7.868,1.792.459,2.507.717,6.419,1.521,8.528,1.674-.437,2.752,1.123,1.084,2,2.053,1.139,3.11,3.32,4.753,4.851,4.515-1.833,5.355.906,1.666,1.531a36.847,36.847,0,0,0,3.169,2.345l.078-.011c1.3-.2,3.755-1.274,4.371.152.277,1.032-1,1.36-1.92,1.485q1.228.774,2.462,1.542c.719-.317,1.432-.712,2.165-.965,1.8-.4,1.961,1.94-.395,2.072,1.476,1.09,3.512.462,4.455,2,3.451,1.393,5.082,5.6,4.277,8.963a6.5,6.5,0,0,1,2.161,4.315,3.7,3.7,0,0,1-3.025,3.832c-2.111.7-4.253,1.344-6.39,1.947l-.224.077a15,15,0,0,1-5.514,1.033c-10.858-.648-25.338-5.108-34.029-10.657-2.168-1.629-2.547-5.658.437-6.947-1.375-2.492-.718-4.3-.135-7.017a17.414,17.414,0,0,1,1.949-5.225.167.167,0,0,1,.312.041,39.316,39.316,0,0,1-.181,5.612l-.015.207c-.123,1.72-.4,2.353.064,3.981,1.117,4.155,11.885,6.23,16.116,7.943q4.983,1.543,10.114,2.76l.251.054c2.887.635,5.859,1.6,8.9,1.1,1.577-1.147,3.943-.824,5.493-2.136,2.337-2.523.5-6.223-1.138-8.516-1.583.505-2.937-.854-4.1-1.573l-.043-.026c-1.19-.753-2.378-.226-3.57-.977l-.269.051c-4.38.835-7.771,1.787-.785-.711-1.151-.719-2.3-1.444-3.422-2.207-2.294.277-4.808,1.481-6.94,1.591a16.406,16.406,0,0,1,5.237-2.812,25.052,25.052,0,0,1-3.01-2.648l-.873.218c-5.365,1.332-7.473,1.717-.251-1.531-1.42-1.577-1.651-3.912-3.213-5.4a18.79,18.79,0,0,0-6.864,3.057,12.882,12.882,0,0,0-2.105,2.073c-3.1,3.993-7.914,4.61-9.383-.57-.025-.106.141-.172.188-.082l.005.013a3.732,3.732,0,0,0,4.864,1.892l.057-.031c1.852-.965,2.712-2.934,4.171-4.276a20.372,20.372,0,0,1,6.982-3.863,38.051,38.051,0,0,1-.755-9.007,54.057,54.057,0,0,1-12.813-.819c.675,4.919.231,11.32.541,15.706.448,1.472-2.279,2.392-2.569.925a112.582,112.582,0,0,1,1.027-16.888l-.3-.074a3.376,3.376,0,0,1-.83-.295c-2.7.306-1.965-6.561-2.419-8.492-3.049-42.588-9.472-84.794-14.93-127.1-.757-.29-.891-1.219-1.016-1.995-6.878,4.655-8.249,13.959-11.328,21.17-13.446,37.34-19.454,76.734-28.773,115.185l.051.013c.037.011.037.016-.04.011h-.018v0a.835.835,0,0,1,.678,1.244c-1.049,2.117-3.957,1.368-5.872,1.233.186,3.261-.512,10.3-.07,13.2,2.362.044,2.512,2.643,2.824,4.188l.024.159c.417,2.639,1.82,7.589.772,9.722,1.62,1.927.455,4.545-1.226,5.861a41.179,41.179,0,0,1-6.073,3.133c-9.573,3.867-18.834,11.323-30.565,8.454l-.511-.108c-8.222-1.737-10.584-2.509-8.951-10.646a5.306,5.306,0,0,1,.268-4.927c1.683-2.159,4.509-3.34,6.759-4.98,3.81-2.56,7.865-4.8,11.586-7.463-.138-.12.054-.164.167-.144,2.626-2.056,2.381-5.615,4.213-8.155.458-1.309,2.772-1.628,4.3-1.446-.476-2.439,1.849-13.542,2.145-5.7v.113c.006,1.211.2,5.252-.153,6.044,5.058,1.545,6.148,6.4,7.231,10.327l.07.019c.346.089.808.161.981.5,1.626-1.034,2.081-3.068,3.656-4.163a1.274,1.274,0,0,1-.24-1.516c.734-2.689,1.173-9.534,2.282-12.538-5.207-.78-10.511-1.177-15.6-2.592a1.12,1.12,0,0,1-1.964-.753c1.575-25.529,4.284-50.979,7.7-76.324,2.807-23.724,7.746-47.146,11.186-70.746l.029-3.239c.093-9.737.353-19.62,3.984-28.787-.32-.14-.636-.284-.949-.435-3.937,1.632-.835-8.284-.69-10.071,1.935-10.361,4.214-20.72,5.667-31.146a11.343,11.343,0,0,1-4.1-2.468c-7.114-5.79-11.238-52.684-8.652-62.113,1.35-5.931,7.069-8.845,12.52-10.185l.805-.227A88.847,88.847,0,0,1,173.3,12.348c.226-.2.889-.146.976.025a3.858,3.858,0,0,1,1.093,1.2C184.166,12.561,181.787,6.811,185.406,5.992Zm21.047,337.716c-1.232,2.8.4,4.924,3.149,6.1,9.5,4.405,20.11,7.945,31,8.621,3.323-.8,6.614-2.132,9.981-2.953l.145-.026c1.185-.218,1.742-.436,1.64-1.667l.043-.5a17.087,17.087,0,0,0,.079-2.651c-1.036,2.477-4.136,3.838-6.855,4.339-4.31,2.045-9.136-.034-13.371-.91C225.388,351.972,210.509,348.686,206.453,343.708Zm-59.695.058-.142.044a7.01,7.01,0,0,1-3.87.5c-6.176,2.093-12.187,4.468-18.153,6.94-6.437,3.082-16.8,6.664-22.38-.783.8,3.906-.332,5.242,4.994,6.216,8.451,2.755,15.241,1.345,22.253-2.42,5.138-2.5,10.663-4.483,15.636-7.2l.067-.047C146.142,346.324,147.322,345.051,146.758,343.767Zm-12.827-16.816a8.172,8.172,0,0,0-9.178-3.511c-.328,2.869.522,6.08-1.3,8.571,1.613.283,3.221.609,4.826.946l1.469.311c.721.158,1.639.428,1.518,1.193-.133.845-1.243.587-1.981.374L129,334.75c-2.073-.61-4.144-1.233-6.191-1.93a19.27,19.27,0,0,1-3.933,3.018l.583.066c2.041.229,4.1.437,6.12.851a.691.691,0,0,1-.211,1.366c-2.408-.628-4.81-1.338-7.259-1.789-1.2.792-2.389,1.587-3.589,2.375,2.36.342,4.731.372,7.09.574,1.527.141,1.527,2.228,0,2.108a34.219,34.219,0,0,1-8.134-1.994l-1.383.909c-1.614,1.06-3.232,2.118-4.866,3.153a11.026,11.026,0,0,0-2.94,2.129c-2.169,3.5,3.251,6.851,6.914,6.8,5.563.059,10.2-2.829,15.07-4.558,2.7-.667,16.4-7.528,17.649-5.722.784-.377,1.875-.513,2.439-1.133a42.327,42.327,0,0,0-1-8.768,12.151,12.151,0,0,1-.378-1.629c-2.283.842-2.933,4.028-5.938,3.757-.47.751-1.919.4-2.572-.2a4,4,0,0,1-.97-2.377l-.079-.374A15.174,15.174,0,0,0,133.932,326.951ZM201.584,83.636l-.367.093a37.725,37.725,0,0,1-11.494,1.361c-.664,2.513-.318,8.491-3.02,9.447a2.25,2.25,0,0,1-2.736-.877c-5.589-.1-11.218-.6-16.807-.931-4.208-.331-8.573-.318-12.624-1.595a24.151,24.151,0,0,1,.385,7.424c-.945,10.778-4.055,21.279-5.1,32.011l-.048.511-.03-.017c0,.02,0,.04,0,.06.3.088.608.18.91.273a.282.282,0,0,1,.333.1c22.26,6.923,45.888,9.93,69.089,6.883,4.063-.507,8.1-1.218,12.1-2.06a.313.313,0,0,1,.607-.114c.889-.155,1.778-.325,2.662-.439a1.346,1.346,0,0,1-.016-.92c1.724-5.173.936-11.071.393-16.436-.694-8.237-2.422-16.317-3.819-24.442-6.611-.3-13.182-1.379-19.825-1.244-.7,1.814-3.139,3.337-5.049,2.3-1.349-.728-1.748-2.316-2.289-3.628C203.769,88.806,202.677,86.221,201.584,83.636ZM173.573,12.594c-6.942,2.051-14.055,3.515-20.934,5.791-5.717,1.424-9.62,5.011-9.861,11.128-.472,13.1.965,26.272,3.133,39.185l.113.583c1.2,6.223,2.282,12.555,4.554,18.487a28.728,28.728,0,0,0,10.712,2.16c5.3.269,10.591.546,15.882.893l4.148.269c1.2.078,2.877-.128,3.782.808.08.132.243.115.367.2l.024.018c.132.09.265.307.455.265.309-.1.428-.713.5-1.008l.007-.027c.4-1.576.695-3.186,1.067-4.771.848-3.118,1.214-6.415,2.5-9.4a26.018,26.018,0,0,1-5.074-4.121l-1.8-.633a99.083,99.083,0,0,0-13.129-3.874c-.107.984-1.519,1.546-2.045.517-.873-2.622-1.034-5.469-1.636-8.172-1.366-8.063-2.989-16.1-3.934-24.225,2.6,7.2,3.954,16.034,5.945,23.814a.139.139,0,0,1,.224.1,29.945,29.945,0,0,1,21.83.272c1.742.7,3.512,1.326,5.245,2.047.592.334,1.771.314,1.97,1.045a3.352,3.352,0,0,1,.879-1.274c.119-.244,1.466-.681,1.6-.2,7.9,1.084,15.586,4.522,23.716,3.942-.962-3.512-.848-7.305-.913-10.933l.02-.408c.167-3.573.288-8,1.5-10.937a95.386,95.386,0,0,0,.734,22.152c5.735-.74,3.094,2.539-.726,2.416-7.709.555-14.823-2.854-21.917-5.338-3.875-1.549-4.314-.237-4.141,3.444,0,4.793,2.174,9.168,4.141,13.42l.883,1.986c1.468,3.305,2.917,6.589,4.343,9.933,6.233-2.066,13.25-.933,19.707-.556,4.927.619,8.465.4,12.633-2.451,1.5-2.872,3.484-5.6,4.259-8.836a44.513,44.513,0,0,0,1.46-9.156l-.236-.861a240.06,240.06,0,0,0-10.993-32.562l-.249-.58c-1.557-3.644-3.139-7.468-6.29-10.02-5.288-3.9-11.828-5.636-17.386-9.109l-.035.254c-.564,3.985-1.539,8.116-4.089,11.322-4.713,5.787-13.612,5.949-19.643,2.191-6.274-3.469-10.039-9.927-11.87-16.678l-.021-.074C174.816,14.436,174.338,12.614,173.573,12.594Zm17.039,64.943a47.9,47.9,0,0,1-.706,6.308c3.262-.644,6.514-1.093,9.722-1.963A53.618,53.618,0,0,1,190.612,77.537Zm-7.854-17.115c-4.756-.931-9.626-.374-14.329.376.511,2.375,1.095,4.729,1.583,7.108,1.684-.077,17.661,2.752,15.858,5.023,2.358,1.261,4.593,2.743,6.94,4.032a50.719,50.719,0,0,0,7.355,3.314l-.134-.3c-2.183-4.875-4.222-10.362-2.54-15.69-2.261.908-5.348-1.042-7.539-1.771A35.389,35.389,0,0,0,182.758,60.422ZM148.516,41.543c.016-.89,2.763,1.661,3.122,1.926l.217.2c2.637,2.392,5.241,5.024,6.71,8.307.107,3.226-4.7-4.589-5.368-5.067C151.742,45.033,149.97,43.408,148.516,41.543Zm76.029,7.594c-.743.245,1.286-2.276,2.077-2.092.315-.046.589.41.239.567l-.174.076A4.216,4.216,0,0,0,224.544,49.137Z" transform="translate(-101 -4.118)" fill-rule="evenodd"/>
    </g>
    <g id="head_hat-beanie" data-name="head/hat-beanie" transform="translate(757.519 1056.733)">
      <path id="Path" d="M36.347,12.408c6.736,0,14.819,3.267,15.506,3.332h.019q.542,0,4.238,3.23l-2.669,5.207.216.206c1.033.991,1.916,1.895,2.612,2.607,5.686,5.815,6.708,28.648,5.368,36.61S57.815,79.355,46.26,79.355,21.849,72.4,19.869,70.24a5.622,5.622,0,0,0-4.449-2.074l-.2-.255-.242-.034a14.983,14.983,0,0,1-4.9-1.332c-1.926-1.09-4.044-6.822-4.044-8.085S2.876,48.116,2.813,47.154v-.027c0-.8-4.13-4.5-4.13-5.677s-.833-1.1,0-5.241l.242-1.216c.886-4.406,2.62-11.7,9.232-14.872C15.42,16.637,29.543,12.408,36.347,12.408Z" transform="translate(2.743 -11.248)" fill="#fff" fill-rule="evenodd"/>
      <path id="_-Ink-2" data-name="ðŸ–-Ink" d="M6.607,19.488c3.624-3.848,24.195-9.8,34.6-8.537l.312.04a18.4,18.4,0,0,1,2.457.482,21.185,21.185,0,0,1,7.466,3.077c1.8,1.262,7.483,3.324,5.808,6.626a4.891,4.891,0,0,1,.433,3.79,4.545,4.545,0,0,1-.334,1.151,33.905,33.905,0,0,1,3.227,6.28,66.837,66.837,0,0,1,2.546,16.228c.45,10.276-.676,22.551-9.623,29.2a15.885,15.885,0,0,1-19.945-.869c-.345-.408-1.966-1.509-1.425-1.7q.241.255.5.5a.1.1,0,0,1-.006-.056l-.159-.144c-.3-.276-.685-.677-.245-.6.019.023.041.042.062.065a2.171,2.171,0,0,1,.219.147l.028.023-.009-.009c-.254-.271-.406-.547-.026-.37l.05.024c.169.178.34.348.515.513a.1.1,0,0,1,.011-.06l-.163-.157c-.159-.156-.135-.156-.057-.282-.338-.473.293-.192.337-.008.394-.093.741.647.995.738,11.134,8.563,27.292.965,27.03-22.9l0-.467c-.077-7.63-.718-15.472-3.873-22.378A19.874,19.874,0,0,0,56.3,27.893q-.39-.7-.838-1.373a12.413,12.413,0,0,1-2.481-.459c-.28-.071-.557-.149-.834-.241-4.044.221-8,.461-12.054.688l-1.267.079c-3.436.221-6.989.575-9.761,2.7-2.72,1.935-2.733,5.752-5.061,7.877-3.321,2.255-3.345,4.288-3.984,7.61.047,2.5,1.783,6.144-1.4,7.2.537.767-.212.4-.271.129l-.017,0c.479.891-.225.33-.287.044a.275.275,0,0,1-.113-.075c.483.78-.3.234-.251.092a3.811,3.811,0,0,0-4.2-1.276.072.072,0,0,1-.114.029C7.613,52.165,9.1,64.077,14.991,62.925c.252-.051.246.07.3.081-.136-.358.248-.212.244-.137h.023c.019,0,.011,0,.025,0-.132-.731.609.328.551.372a.19.19,0,0,1,.071-.024l-.026-.069c-.123-.328-.112-.191-.112-.379-.092-.232-.1-.131-.077-.282.325-.252.421.512.529.568-.186-.259-.038-.47.137-.33a24.589,24.589,0,0,0,5.258,7.486c.242.191.488.379.742.557.943.821,2.389,1.35,3.271,2.077a.089.089,0,0,1-.015.042l.02.018h0l.02.019.307.148a1.637,1.637,0,0,1,.244.257,1.7,1.7,0,0,1,.2.291c.029.126-.035.179-.155.125-.053-.018-.105-.039-.158-.059a.056.056,0,0,0,.008.011c.017.026.134.3,0,.253l-.016-.006c-.074-.027-.147-.057-.22-.086.086.107.164.223.233.321a.509.509,0,0,1,.137.269c0,.057-.035.081-.092.074-.087-.029-.173-.059-.259-.09l.024.047c.061.119.147.32-.006.253-.131-.041-.257-.087-.384-.138-.011.021-.032.029-.074.009a7.745,7.745,0,0,1-1.162-.524c-.326-.238-.656-.471-.984-.707a7.554,7.554,0,0,1-.891-.623,19.4,19.4,0,0,1-4.89-4.531c-2.21,1.915-6.629.085-9.362-1.413-2.418-1.34-3.368-3.817-3.614-6.487C4.327,56.72,1.39,55.49,1.594,47.6a.047.047,0,0,1-.015,0,1.532,1.532,0,0,1-.308-.128A1.541,1.541,0,0,1,.986,47.3l-.11-.152h0a.932.932,0,0,1-.147-.1l-.02.026c-.064.078-.021-.039-.017-.062L.5,46.754c-.452-.618-.949-1.311-1.353-1.866l-.013.023c-.009.017-.014.029-.01.035a11.922,11.922,0,0,1-2.118-4.671,8.216,8.216,0,0,1,.078-3.683C-1.805,32.551,1.832,23.407,6.607,19.488ZM32.72,75.369l-.06-.054.053.066a.448.448,0,0,0,.1.1.083.083,0,0,1,0-.033C32.782,75.422,32.751,75.4,32.72,75.369Zm8.444-62.388c-7.058-.607-14,.948-20.735,2.831l-.465.134c-3.83,1.093-7.879,2.077-11.115,4.417C4.328,23.827,1.993,29.339-.045,34.427A9.386,9.386,0,0,0,1.767,45.111a43.289,43.289,0,0,1,1.5-7.7c.155-.395.038-.524.372-.575.5,6.808-1.982,11.837,2.94,19.906,2.135,3.807-.337,6.592,5.694,8.6l.163.062a7.114,7.114,0,0,0,3.859.583l-.11-.179c-.112-.185-.147-.274.017-.353,0-.009-.01-.018-.017-.029q-.2-.375-.382-.759c-.05.017-.1.029-.15.042.033.062.038.123-.056.145a2.621,2.621,0,0,1-1.021.138l-.075-.006a3.445,3.445,0,0,1-.864-.163c-.074-.012-.147-.024-.22-.039a5.087,5.087,0,0,1-1.959-.96c-5.576-3.168-5-13.953,1.873-14.972.141-6.79,3.369-18.246,8.727-24.716C26.9,18.184,40.122,15.6,49.321,16.514l.4.135A38.373,38.373,0,0,1,53.915,17.7a12.789,12.789,0,0,0-3.368-1.706A24.317,24.317,0,0,0,42.822,13.2,7.6,7.6,0,0,0,41.164,12.981ZM13.016,54.307c.37-.2.327-.007.412-.063,2.658-.217,5.524,2.111,7.01,4.052-.117.122-.435-.239-.491-.3a.068.068,0,0,1-.026.017l.041.058c.6.865-.592-.153-.7-.362a.089.089,0,0,1-.062.012c.095.093.384.335.433.507l.077.064c.723.619.663,1.085-.158.206a.131.131,0,0,1,.013.108l.028.019c.4.282.735,1.068-.108.261.088.589-.836-.55-.865-.542a12.385,12.385,0,0,0-5.954-2.639L12.6,55.7c-.368-.047-.542-.156-.413-.4-.453-.108-.347-.331-.132-.324-.319-.21-.032-.411.153-.333-.127-.353.384-.118.43-.167C12.9,54.07,12.972,54.412,13.016,54.307ZM7.444,32.429c1.277-.468,5.048.933,4.746,2.787A.885.885,0,0,1,11,35.645l-.543-.365c-.945-.633-1.8-1.188-2.812-1.74C7.1,33.266,6.858,32.684,7.444,32.429Zm7.263-2.756-.493-.321c-2.661-1.742-6.422-4.382.249-1.651.76.326,1.77.519,2.185,1.243C17.3,30.279,15.585,30.369,14.707,29.672Zm.3-7.816c-.214-.811,2.443.141,3.217.391l.118.045a4.108,4.108,0,0,1,2.065,1.19c.527.9-.54,1.083-1.2.678C17.849,23.274,16.364,22.605,15.006,21.856Zm6.756-3.776c-1.5-1.634,2.507-.069,3.106.366l.017.013a.708.708,0,0,1-.064,1.193C23.626,19.674,22.746,18.677,21.762,18.08Zm6.8-1.79c-2.377-1.709.754-.9,1.842-.226C31.15,16.718,30.387,17.822,28.567,16.29Z" transform="translate(3.169 -10.779)" fill-rule="evenodd"/>
    </g>
    <g id="face_Tired" data-name="face/Tired" transform="translate(791.214 1086.235)">
      <path id="_-Ink-3" data-name="ðŸ–-Ink" d="M31.486,38.2A1.245,1.245,0,0,1,33,39.708,1.928,1.928,0,0,1,30.859,41c-1-.035-2.006-.242-3.014-.284-1.036-.043-2.076-.051-3.112-.023a15.767,15.767,0,0,1-2.894.043c-.37-.059-.335-.548-.094-.722a7.3,7.3,0,0,1,2.487-.943,19.827,19.827,0,0,1,2.621-.493,25.733,25.733,0,0,1,2.7-.167,8.325,8.325,0,0,0,1.312.013C31.063,38.381,31.27,38.247,31.486,38.2ZM28.741,25.441c1.136.691,2.867,2.3,1.645,4.015-1.439,1.51-3.51-.221-4.531-1-.947-.607-2.01.954-1.132,1.663,7.376,5.463,10.37-4.492,4.592-5.485C28.68,24.519,28.444,25.227,28.741,25.441ZM20.5,20.282a1.047,1.047,0,1,1,.279,2.066c-.316.032-.63.059-.944.087a1.585,1.585,0,0,1,.062.3c.014.088.025.182.034.289a1.559,1.559,0,0,1-2.345,1.346,1.641,1.641,0,0,1-.6-.594,1.73,1.73,0,0,1-.278-.893c-.693.18-1.4.423-2.1.552a1.077,1.077,0,0,1,.076.082c.019.023-.007.065-.034.044l-.351-.078h0c-.108.014-.216.026-.324.033l0-.009h0a.227.227,0,0,1-.166-.387,7.182,7.182,0,0,1,2.463-1.451l.847-.348A16.208,16.208,0,0,1,20.5,20.282Zm12.227.671a16.981,16.981,0,0,1,2.978-.008c1.678.1.974,2.55-.373,1.985a.962.962,0,0,1,.007.263,1.25,1.25,0,0,1-.588,1.025,1.2,1.2,0,0,1-1.2,0,1.4,1.4,0,0,1-.67-.971,2.324,2.324,0,0,1,0-.92.667.667,0,0,1,.126-.3c-.094-.023-.188-.046-.282-.067-.837-.191-1.664-.152-2.5-.273A.107.107,0,0,1,30.2,21.5,8.347,8.347,0,0,1,32.729,20.952Zm-12.38-7.561a1.414,1.414,0,0,1,1.589.647,1.458,1.458,0,0,1-.22,1.706A8.341,8.341,0,0,1,19,17.354l-.071.034c-.908.438-1.841.841-2.787,1.192a25.165,25.165,0,0,1-2.862.848,13.861,13.861,0,0,1-1.547.287,8.186,8.186,0,0,1-1.119-.062.057.057,0,0,1-.028-.105c.367-.231.639-.534,1.039-.748q.625-.333,1.254-.657c.848-.437,1.665-.924,2.483-1.414.862-.516,1.705-1.06,2.525-1.642A12.112,12.112,0,0,1,20.349,13.391Zm10.237-.468a1.367,1.367,0,0,1,1.64.932c.2.7-.009.851.534,1.352a16.811,16.811,0,0,0,1.371,1.107l.693.516a20.34,20.34,0,0,0,3.965,2.436c.122.053.051.234-.064.237a13.844,13.844,0,0,1-6.568-1.294,5.66,5.66,0,0,1-2.5-2.046C29.007,15.053,29.026,13.226,30.586,12.923Z" transform="translate(-10.563 -12.892)" fill-rule="evenodd"/>
    </g>
  </g>
</svg>
