<svg xmlns="http://www.w3.org/2000/svg" width="213" height="342.629" viewBox="0 0 213 342.629">
  <g id="Group_117" data-name="Group 117" transform="translate(-702 -2957)">
    <g id="pose_sitting_crossed_legs" data-name="pose/sitting/crossed_legs" transform="translate(702 3016.928)">
      <path id="_-Background" data-name="ðŸŽ¨-Background" d="M283.257,83.666a17.746,17.746,0,0,1,3.826-.473c4.425-.26,8.936,1.849,13.274,2.8,1.9.469,3.91,1.022,5.942,1.434,1.8.245,3.669.429,5.545.545,1.516.045,3.28-.071,3.8,1.523a23.174,23.174,0,0,0,8.648.334,5.12,5.12,0,0,1-.146-2.89c-.142-.236-.335-.556-.438-.771h.349c5.1-2.041,10.61-3.434,15.735-5.549,6.689-2.411,16.539-7.069,24.268-10.249a33.583,33.583,0,0,1-.5-8.619l-.311-.251a5.731,5.731,0,0,0-.548-1.728,16.541,16.541,0,0,1-.518-3.381,24.617,24.617,0,0,1,.046-7.9c.24-3.443,2.561-6.1,5.064-8.227,3.073-3.039,6.15-6,9.149-9.161,16.6-16.926,17.916-38.244,43.906-44.724l.013-.1c.2-.228.289-.41.522-.049.858-.329,1.928-.3,2.647-.857a10.266,10.266,0,0,0,2.773-4.1c.456-3.014.133-7.659,2.774-9.587,2.933-1.757,18.514-3.008,19.858.833a5.389,5.389,0,0,1,1.474,3c.868,1.642,1.416,3.463,2.29,5.131,1.859,3.74,3.065,2.911,6.347,3.766.356-.794,1.438-.634,2.226-.519,9.546,1.342,21.185,5,25.273,13.976l-.348-.044c7.055,13.256,2.48,30.114,1.218,44.162a117.959,117.959,0,0,0,2.92,36.681c3.4,12.356,3.6,26.178-3.155,37.362-.687,1.28-1.523,3.089-3,2.286a8.821,8.821,0,0,1-2.979,1.4,9.519,9.519,0,0,1-1.069.855c-.017.024-.6-.312-.632-.321-1.1,1.576-61.746,6.844-68.039,7.661-5.544.669-12.87,2.376-17.388-1.624-3.734-1.067-7.641-3.844-10.625-6.6-1.811,26.261-2.812,80.042-4.428,80.417-.707.24-1.661.527-2.462.756,0,1.887-.145,4.03,0,5.885.248,2.095.877,4.568,1.161,6.77,1.222-.082,1.582,1.144,1.724,1.977,1.055,6.88,1.024,12.427.948,19.989-12.407,7.308-26.947,11.327-40.908,16.05-1.337,1-4.235-.082-5.779-.354-5.36-1.055-11.451-4.177-10.1-9.9.991-4.31,5.15-6.79,8.652-9.325a114.473,114.473,0,0,0,11.392-8.853,65.491,65.491,0,0,0,7.294-7.733c1.045-1.4,2.16-3.693,3.567-4.723-1.486-1.762,1.516-.111,2.653-.009a87.279,87.279,0,0,1,2.489-9.188l-.965.044c-3.168-2.959-4.944-17.163-5.165-21.377-1.588-27.471-1.55-59.133,4.82-82.268-4.839,2.98-10.145,5.469-14.958,8.416-3.034,1.778-6.113,4.246-9.515,5.108a.825.825,0,0,1-1.475.261c-.609.075-1.393-.178-1.46-.455-.623-1.273-1.525-2.646-1.416-4.029l.836-1.938c-1.872.761-3.907,2.362-5.9,2.509-4.036,13.477-11.987,5.927-19.638.682-4.618-3.227-9.669-6.79-14.528-10.23-4.123-3.28-12.172-6.392-8.227-12.889" transform="translate(-280.55 29.998)" fill="#fff" fill-rule="evenodd"/>
      <path id="_-Ink" data-name="ðŸ–-Ink" d="M451.151,9.091c-3.9-.947-4.563-10.293-6.917-8.962-1.36,1.183.865,3.416,1.259,4.751l.173.339a8.957,8.957,0,0,0,3.275,4c1.011,1.065,4.035.019,3.59,1.716-1.552,5.112-9.791,8.653-14.647,10.244-7.547,2.835-19.756,1.876-21.53-7.629,4.14-.758,7.2-8.229,4.649-11.339-.087,3.021-.912,6.14-3.284,8.187l-.131.12c-.417.381-.958.836-1.5.751-.525-.732-1.545-.315-1.845.457-23.57,4.075-28.82,29.5-43.664,44.468-2.965,3.122-6.065,6.112-9.124,9.139a13.518,13.518,0,0,0-5.49,10,26.63,26.63,0,0,0,.158,6.779l.021.2a11.029,11.029,0,0,0,.887,4.151c.115.422.069.954.433,1.252A34.1,34.1,0,0,0,357.9,95.5L356.761,96a376.334,376.334,0,0,1-38.22,15.007c-1.115-.2-1.024,1.094-.484,1.684a4.81,4.81,0,0,0,.009,2.1,22.221,22.221,0,0,1-7.175-.378c-.746-1.643-2.729-1.556-4.261-1.6-1.9-.119-3.805-.305-5.7-.57-4.658-1.041-9.232-2.41-13.845-3.614a18.393,18.393,0,0,0-9.513-.028,13.313,13.313,0,0,0-1.422,1.888c-2.831,4.39-.041,8.413,3.91,10.719q9.509,6.742,19.049,13.436l.463.33c7.576,5.424,16.1,12.289,20.146-.912,1.36-.16,2.552-1.072,3.819-1.611-.341,1.584.677,3.184,1.379,4.542a1.869,1.869,0,0,0,1.891,1.021,1.547,1.547,0,0,0,2.306-.371c3.463-.992,6.325-3.307,9.391-5.105,4.359-2.648,8.932-4.905,13.353-7.441-7.345,30.417-5.549,62.1-3.594,93.064l.014.28c.242,4.52,1.279,6.659,5.027,9.43a60.993,60.993,0,0,0-1.683,6.042c-.157.475-.881.028-.887.681-1.332-.312-4.038.022-3.094,1.864-2.674,2.244-4.484,5.285-6.828,7.843-4.128,4.949-9.524,8.632-14.815,12.261-12.163,6.2-12.86,16.94,1.371,20.61l.143.033c1.96.472,4.32,1.55,6.219.642a85.634,85.634,0,0,0,8.442-2.5,294.685,294.685,0,0,0,32.754-13.03,1.135,1.135,0,0,0,.612-1.009c-.118-3.421.81-22.169-2.736-22.573a48.914,48.914,0,0,1-.773-11.693,30.993,30.993,0,0,1,3.506-.937c1.157-.364,2.967-.446,3.741-1.384a.663.663,0,0,0,.441-.743q-.94-8.812-1.448-17.663a463.441,463.441,0,0,1,.568-59.38,27.585,27.585,0,0,0,9.494,5.641c1.951,1.955,5.078,2.374,7.741,2.611,3.424.212,6.788-.472,10.167-.9,5.738-.722,11.437-.083,17.133.626l1.947.243c13.947,1.53,29.019,1.846,42.017-4.115,2.447.217,5.486-2.428,7.012-4.2.674.416,1.337-.4,1.874-.825a9.694,9.694,0,0,0,2.7-1.221c2.041.668,3.142-1.982,3.918-3.424,12.306-21.076-1.4-42.056-.368-64.406-.624-17.522,7.367-35.778-.356-52.583-1.562-7.112-10.7-12.027-17.579-13.834-2.217-.366-10.608-3.4-11.532-.849A2.182,2.182,0,0,0,451.151,9.091ZM349.072,237.283c1.153.124,2.278.195,3.418.4a31.91,31.91,0,0,1,11.7,4.532,15.277,15.277,0,0,0,3.52,2.034,4.028,4.028,0,0,0,5.214-4.132,118.954,118.954,0,0,1,.236,20.3A351.346,351.346,0,0,1,340.446,273.3c-2.5,1.049-5.468,1.385-7.768,2.8a23.444,23.444,0,0,1-11.161-3.777c-5.463-3.791-1.836-9.8,2.692-12.449C334.178,255.381,342.663,246.276,349.072,237.283Zm21.841-9.893c.209,1.983-1.3,5.072-1.085,9.024a16.226,16.226,0,0,1,.415,3.766c-.613,4.6-5.589-1.245-7.646-1.885a31,31,0,0,0-9.351-3.3c.02-1.06.721-1.483.814-2.53.132-1.543.126-3.026.2-4.584C358.494,229.814,366.415,228.45,370.913,227.39Zm-22.846,9.593a1.76,1.76,0,0,0,.232.129,17.4,17.4,0,0,1-1.8,2.12l.3-.462A18,18,0,0,1,348.066,236.983ZM479.759,72.549a5.851,5.851,0,0,0,1.186,2.379c-3.01,24.409,12.477,44.758-1.762,67.452a2.314,2.314,0,0,0-.5.319c-.084-.056-.167-.114-.25-.173-6.674-11.811-16.174-22-23.744-33.3-1.453-2.837-3.845-5.693-4.76-8.971C465.139,94.247,471.215,85.481,479.759,72.549ZM279.566,109.573a5.8,5.8,0,0,0,2.051.028,25.164,25.164,0,0,1,7.169,1.23,191.391,191.391,0,0,0,20.6,4.607,5.713,5.713,0,0,1,.4.451.634.634,0,0,0,.036.714c1.051,2.007.2,4.465.965,6.614,1.106,4.35,4.048,9.256,8.438,10.8-1.464,1.4-2.513,3.191-4.022,4.538-3.707,2.541-7.789-1.246-10.815-3.277q-8.642-6.106-17.33-12.139c-2.6-2.151-8.336-4.862-9.577-7.712C276.679,113.242,278.127,111.114,279.566,109.573Zm39.706,5.546c2.48,5.058,3.912,10.436,5.344,15.867-1.489.41-2.862,1.052-4.326,1.483-2.062.464-4.974-3.522-6.008-5.1a16.52,16.52,0,0,1-2.159-5.75c-.292-1.995.019-4.067-.849-5.914A18.2,18.2,0,0,0,319.271,115.119Zm147.434-10.437c-2.329-.652,2.969,4.617,3.274,5.179,3.445,4.068,6.6,8.364,9.733,12.673l.949,1.308c.091.133.72,1.062.265.944a.037.037,0,0,0-.028.067C483.8,125.365,468.1,105.04,466.705,104.682Zm-56.774-2.487c-.188-.567.706-.81.894-.246l.594,1.788c2.24,6.756,4.467,13.521,7.145,20.119.224.554-.672.795-.894.247C414.757,116.923,412.377,109.545,409.931,102.195ZM383.889,99.83c.817,3.876,2.88,7.37,4.131,11.075-2.349-.518-4.159-2.707-5.529-4.591l-.041-.063c-.646-.995-1.4-2.548-2.864-1.846-2.227,1.294-.632,5.883-.59,8.058a67.814,67.814,0,0,0,1.912,8.667c-1.7-1.16-2.186-3.449-3.013-5.232l-3.185-7.642h0c-2.341-3.208-1.254,6.4-1.133,7.306.19,1.992,1.03,4,.7,6a15.278,15.278,0,0,1-2.851-5.019c-.97-2.52-1.854-5.072-2.777-7.609a.7.7,0,0,0-1.353.368q.089,4.318.153,8.636l.034,2.159c.006.409.209,1.6-.5,1.274-3.713-3.9-4.665-11.69-4.182-16.926C370.1,104.624,377.549,103.678,383.889,99.83Zm-64.945,14.54c.03.1.064.19.1.285-.021,0-.043.009-.064.014C318.966,114.568,318.954,114.469,318.945,114.369Zm161.976,0c.81-.6-12.8-18.071-11.916-13.027C472.8,105.834,477.227,109.771,480.92,114.369ZM360.754,75.758c12.725-2.99,23.931,8.179,36.71,6.492-.148,4-.353,8.028-.273,12.03-16.97,1.4-15.04,8.624-34.575,7.9-2.525-1.691-3.561-12.056-3.348-15.184-.163-3.7,3.02-5.36,6.19-6.009,1.146.692,3.2-1.372,1.5-2.1A20.038,20.038,0,0,1,360.754,75.758Zm93.877-65.566A41.542,41.542,0,0,1,467.8,13.78c15.381,4.441,17.6,22.449,15.749,36.095-.766,10.377-3.725,20.527-9.946,28.965C457.044,104.1,429.613,100.1,403.63,96.761c-.937-.652-2.524-.189-3.426-1.05a.889.889,0,0,0,.252-.133,2.537,2.537,0,0,1-.869-1.563l-.187.019h0c-.184-3.918-.037-7.759-.1-11.646,8.538-2.342,17.694-3.539,26.346-5.871.983.686,2.117-.1,3.078-.476q3.736-1.589,7.534-3.024l.633-.239c1.65-.619,3.3-1.253,4.933-1.914l.612-.249c.936-.383,3.3-1.8,4.322-.916l-.082.178c-.606,1.322-2.692,6.213-.127,5.245,2.083-1.463,3.163-11.663,5.225-11.754a20.191,20.191,0,0,1,1.334,5.9c.042.457.642.842,1,.415,2.447-3.223-1.249-6.733-1.348-10.135-.233-3.955,1.517-7.656,2.388-11.442l.054-.261c.511-2.456,1.306-5.434,1.1-7.637L455.8,42.12c-.509,1.913-1.031,3.827-1.629,5.714-1.485,4.712-4.167,9.566-2.677,14.608-2.99.1-3.5,4.82-4.618,6.975-1.817-2.358-14.6,3.3-17.52,4.2l-.563-.639c-9.138-10.364-15.734-17.377-29.9-9.179,2.447-7.894,2.683-16.279,3.1-24.477-.143-1.56.758-5.673-.513-6.525a2.49,2.49,0,0,0-.637.188V33.8c-.006,1.565-.079,4.161-.735,4.75l-.3,3.1c-.789,8.059-1.683,16.112-4.089,23.879a93.652,93.652,0,0,0-16,11.637l-.565-.206c-6.126-2.243-13.5-5.119-19.76-2.319a9.526,9.526,0,0,1,1.565-4.43c1.419-.352,2.348-1.849,3.363-2.845,3.219-3.459,6.524-6.839,9.67-10.368,13.421-14.442,19.131-38.156,40.206-43.758,1.393,11.67,16.319,13.532,25.313,9.538l.341-.131c5.591-2.159,11.91-5.416,13.873-11.352l.082-.172C454.006,10.7,454.247,10.273,454.631,10.193ZM451.313,76.6c-.016-.018-.048.006-.034.026,2.621,3.289,4.753,7.776,2.149,11.7a.874.874,0,0,0,1.364,1.06C458.406,85.287,454.4,79.722,451.313,76.6Zm-91.169.743a23.041,23.041,0,0,0,4.623,2.558,1.119,1.119,0,0,0,.17.538,9.006,9.006,0,0,0-5.911,2.3c-.073-.575-.145-1.151-.2-1.728A3.708,3.708,0,0,1,360.144,77.346ZM459.231,62.8l-.017-.079c-.012-.09-.148-.1-.144,0a4.909,4.909,0,0,0,1.63,2.85l3.226,3.726c1.8,2.164,4.447,4.339,3.851,7.474a1.054,1.054,0,0,0,1.95.533c2.251-4.294-4.835-7.948-7.223-10.718-1.122-1.2-2.889-2.081-3.273-3.786ZM425.494,75.7a.533.533,0,0,0-.07.171q-.566.06-1.129.129l1.2-.3Zm56.36-10.043q-.1.673-.19,1.349l-.059.45-.009-.039a.7.7,0,0,0-.165-.3l-.026-.026Q481.639,66.374,481.854,65.654ZM378.407,61.009c-.9-.1,3.188,2.846,3.414,3.21a.3.3,0,1,0,.363-.471C380.914,62.851,379.661,61.93,378.407,61.009Zm7.959-8.656c-.628-.257-1.055.789-.459,1.081,2.171,1.062,4.466,1.814,6.466,3.211.088.061.2-.082.115-.147l-.24-.19A25.256,25.256,0,0,0,386.367,52.354ZM481.1,39.122c-.607,2.858-3.889,3.8-6.436,4.557l-.8.3c-2.249.861-4.58,1.83-6.2,3.649-.634,2.052,3.892-1.523,4.523-1.7C475.289,44.012,480.873,43.686,481.1,39.122Zm-67-26.681c-.017.145-.026.294-.03.442-.19,0-.379,0-.57.008A3.073,3.073,0,0,0,414.1,12.441Z" transform="translate(-275 4.497)" fill-rule="evenodd"/>
    </g>
    <g id="head_hat-beanie" data-name="head/hat-beanie" transform="translate(833.678 2957)">
      <path id="Path" d="M24.128,12.408c-6.736,0-14.819,3.267-15.506,3.332H8.6q-.542,0-4.238,3.23l2.669,5.207-.216.206c-1.033.991-1.916,1.895-2.612,2.607C-1.48,32.807-2.5,55.639-1.162,63.6S2.66,79.355,14.215,79.355,38.626,72.4,40.606,70.24a5.622,5.622,0,0,1,4.449-2.074l.2-.255.242-.034a14.983,14.983,0,0,0,4.9-1.332c1.926-1.09,4.044-6.822,4.044-8.085S57.6,48.116,57.662,47.154v-.027c0-.8,4.13-4.5,4.13-5.677s.833-1.1,0-5.241l-.242-1.216c-.886-4.406-2.62-11.7-9.232-14.872C45.055,16.637,30.932,12.408,24.128,12.408Z" transform="translate(3.16 -11.248)" fill="#fff" fill-rule="evenodd"/>
      <path id="_-Ink-2" data-name="ðŸ–-Ink" d="M53.432,19.488c-3.624-3.848-24.195-9.8-34.6-8.537l-.312.04a18.4,18.4,0,0,0-2.457.482A21.185,21.185,0,0,0,8.595,14.55c-1.8,1.262-7.483,3.324-5.808,6.626a4.891,4.891,0,0,0-.433,3.79,4.545,4.545,0,0,0,.334,1.151A33.906,33.906,0,0,0-.54,32.4,66.837,66.837,0,0,0-3.086,48.625c-.45,10.276.676,22.551,9.623,29.2a15.885,15.885,0,0,0,19.945-.869c.345-.408,1.966-1.509,1.425-1.7q-.241.255-.5.5a.1.1,0,0,0,.006-.056l.159-.144c.3-.276.685-.677.245-.6-.019.023-.041.042-.062.065a2.171,2.171,0,0,0-.219.147l-.028.023.009-.009c.254-.271.406-.547.026-.37l-.05.024c-.169.178-.34.348-.515.513a.1.1,0,0,0-.011-.06l.163-.157c.159-.156.135-.156.057-.282.338-.473-.293-.192-.337-.008-.394-.093-.741.647-.995.738-11.134,8.563-27.292.965-27.03-22.9l0-.467c.077-7.63.718-15.472,3.873-22.378a19.874,19.874,0,0,1,1.028-1.939q.39-.7.838-1.373a12.413,12.413,0,0,0,2.481-.459c.28-.071.557-.149.834-.241,4.044.221,8,.461,12.054.688l1.267.079c3.436.221,6.989.575,9.761,2.7,2.72,1.935,2.733,5.752,5.061,7.877,3.321,2.255,3.345,4.288,3.984,7.61-.047,2.5-1.783,6.144,1.4,7.2-.537.767.212.4.271.129l.017,0c-.479.891.225.33.287.044a.275.275,0,0,0,.113-.075c-.483.78.3.234.251.092a3.811,3.811,0,0,1,4.2-1.276.072.072,0,0,0,.114.029c5.752,1.247,4.268,13.158-1.626,12.007-.252-.051-.246.07-.3.081.136-.358-.248-.212-.244-.137h-.023c-.019,0-.011,0-.025,0,.132-.731-.609.328-.551.372a.19.19,0,0,0-.071-.024l.026-.069c.123-.328.112-.191.112-.379.092-.232.1-.131.077-.282-.325-.252-.421.512-.529.568.186-.259.038-.47-.137-.33a24.589,24.589,0,0,1-5.258,7.486c-.242.191-.488.379-.742.557-.943.821-2.389,1.35-3.271,2.077a.089.089,0,0,0,.015.042l-.02.018h0l-.02.019-.307.148a1.637,1.637,0,0,0-.244.257,1.7,1.7,0,0,0-.2.291c-.029.126.035.179.155.125.053-.018.105-.039.158-.059a.056.056,0,0,1-.008.011c-.017.026-.134.3,0,.253l.016-.006c.074-.027.147-.057.22-.086-.086.107-.164.223-.233.321a.509.509,0,0,0-.137.269c0,.057.035.081.092.074.087-.029.173-.059.259-.09l-.024.047c-.061.119-.147.32.006.253.131-.041.257-.087.384-.138.011.021.032.029.074.009a7.745,7.745,0,0,0,1.162-.524c.326-.238.656-.471.984-.707a7.553,7.553,0,0,0,.891-.623,19.4,19.4,0,0,0,4.89-4.531c2.21,1.915,6.629.085,9.362-1.413,2.418-1.34,3.368-3.817,3.614-6.487.511-3.6,3.448-4.826,3.243-12.715a.047.047,0,0,0,.015,0,2.128,2.128,0,0,0,.593-.3l.11-.152h0a.932.932,0,0,0,.147-.1l.02.026c.064.078.021-.039.017-.062l.191-.26c.452-.618.949-1.311,1.353-1.866l.013.023c.009.017.014.029.01.035a11.922,11.922,0,0,0,2.118-4.671,8.216,8.216,0,0,0-.078-3.683C61.845,32.551,58.208,23.407,53.432,19.488ZM27.32,75.369l.06-.054-.053.066a.448.448,0,0,1-.1.1.083.083,0,0,0,0-.033C27.257,75.422,27.288,75.4,27.32,75.369ZM18.876,12.981c7.058-.607,14,.948,20.735,2.831l.465.134c3.83,1.093,7.879,2.077,11.115,4.417,4.522,3.465,6.856,8.976,8.894,14.065a9.386,9.386,0,0,1-1.812,10.684,43.289,43.289,0,0,0-1.5-7.7c-.155-.395-.038-.524-.372-.575-.5,6.808,1.982,11.837-2.94,19.906-2.135,3.807.337,6.592-5.694,8.6l-.163.062a7.114,7.114,0,0,1-3.859.583l.11-.179c.112-.185.147-.274-.017-.353,0-.009.01-.018.017-.029q.2-.375.382-.759c.05.017.1.029.15.042-.033.062-.038.123.056.145a2.621,2.621,0,0,0,1.021.138l.075-.006a3.445,3.445,0,0,0,.864-.163c.074-.012.147-.024.22-.039a5.087,5.087,0,0,0,1.959-.96c5.576-3.168,5-13.953-1.873-14.972-.141-6.79-3.369-18.246-8.727-24.716-4.843-5.952-18.065-8.531-27.263-7.622l-.4.135A38.373,38.373,0,0,0,6.125,17.7a12.789,12.789,0,0,1,3.368-1.706A24.317,24.317,0,0,1,17.217,13.2,7.6,7.6,0,0,1,18.876,12.981ZM47.024,54.307c-.37-.2-.327-.007-.412-.063-2.658-.217-5.524,2.111-7.01,4.052.117.122.435-.239.491-.3a.068.068,0,0,0,.026.017l-.041.058c-.6.865.592-.153.7-.362a.089.089,0,0,0,.062.012c-.095.093-.384.335-.433.507l-.077.064c-.723.619-.663,1.085.158.206a.131.131,0,0,0-.013.108l-.028.019c-.4.282-.735,1.068.108.261-.088.589.836-.55.865-.542a12.385,12.385,0,0,1,5.954-2.639l.069-.008c.368-.047.542-.156.413-.4.453-.108.347-.331.132-.324.319-.21.032-.411-.153-.333.127-.353-.384-.118-.43-.167C47.139,54.07,47.068,54.412,47.024,54.307ZM52.6,32.429c-1.277-.468-5.048.933-4.746,2.787a.885.885,0,0,0,1.188.429l.543-.365c.945-.633,1.8-1.188,2.812-1.74C52.944,33.266,53.182,32.684,52.6,32.429Zm-7.263-2.756.493-.321c2.661-1.742,6.422-4.382-.249-1.651-.76.326-1.77.519-2.185,1.243C42.74,30.279,44.454,30.369,45.332,29.672Zm-.3-7.816c.214-.811-2.443.141-3.217.391l-.118.045a4.107,4.107,0,0,0-2.065,1.19c-.527.9.54,1.083,1.2.678C42.19,23.274,43.676,22.605,45.033,21.856ZM38.277,18.08c1.5-1.634-2.507-.069-3.106.366l-.017.013a.708.708,0,0,0,.064,1.193C36.413,19.674,37.293,18.677,38.277,18.08Zm-6.8-1.79c2.377-1.709-.754-.9-1.842-.226C28.889,16.718,29.653,17.822,31.472,16.29Z" transform="translate(3.169 -10.779)" fill-rule="evenodd"/>
    </g>
    <g id="face_Smile-Big" data-name="face/Smile-Big" transform="translate(838 2987)">
      <path id="_-Ink-3" data-name="ðŸ–-Ink" d="M72.34,82.852c-2.519-.306-4.961.466-7.424.854A34.757,34.757,0,0,1,61,84.122c-.265.012-.53.018-.794.024a.7.7,0,0,0-.438-.575,3.4,3.4,0,0,0-1.68-.356,12.4,12.4,0,0,0-1.741.188,5.438,5.438,0,0,0-2.85,1.377c-1.763,1.742-1.495,4.54-.132,6.437,2.815,3.921,7.952,4.1,12.352,4.051l.406-.005c4.006-.057,9.738.54,11.558-4.018a6.036,6.036,0,0,0-5.339-8.393ZM59.826,89.38h.036q2.771.107,5.542.154c-.055.475-.112.949-.176,1.423q-.076.559-.161,1.117a2.227,2.227,0,0,0-.087.558l.009.062h0a.563.563,0,0,0-.245.212.838.838,0,0,0-.055.1,24.517,24.517,0,0,1-4.442-.277l0-.032h0a.606.606,0,0,0-.208-.4,17.8,17.8,0,0,1-.133-1.822C59.879,90.114,59.852,89.747,59.826,89.38Zm6.989.181c1.331.023,2.663.04,3.994.024l.6-.009h0c-.128.685-.266,1.367-.382,2.056a1.013,1.013,0,0,0,1.059,1.156c-.061.01-.123.021-.184.029a37.244,37.244,0,0,1-5.219.176,11.528,11.528,0,0,0,.069-1.614l0-.07Q66.8,90.434,66.815,89.561Zm9.043-.126a4.054,4.054,0,0,1-.271,1.029,4.1,4.1,0,0,1-3.25,2.279.717.717,0,0,0,.477-.621,18.821,18.821,0,0,0,.166-2.562C73.941,89.551,74.909,89.53,75.858,89.435Zm-21.042-.293a11.91,11.91,0,0,0,2.15.118c.629.029,1.258.053,1.886.079-.03.429-.059.858-.09,1.287a14.67,14.67,0,0,1-.15,1.692,6.692,6.692,0,0,1-3.25-2.232A4.29,4.29,0,0,1,54.816,89.143ZM72.629,85.1a4.149,4.149,0,0,1,2.8,1.881,3.966,3.966,0,0,1,.466,2.073c-.962-.112-1.941-.154-2.915-.19q0-.263-.013-.526l-.015-.448A10.6,10.6,0,0,0,72.629,85.1Zm-5.893.1.5-.056a23.03,23.03,0,0,1,4.176-.23c.2.014.406.036.611.066a18.91,18.91,0,0,0-.328,2.81c-.04.34-.09.677-.145,1.013l-.242-.011h0c-1.494-.081-2.989-.131-4.484-.19q0-.421-.006-.843l-.006-.281A19.629,19.629,0,0,0,66.736,85.205Zm-6.991-.114a28.019,28.019,0,0,0,4.4.287c.572,0,1.144-.034,1.715-.085-.037.3-.057.612-.085.912q-.085.91-.191,1.817l-.063.529h0q-2.756-.125-5.512-.267l-.259-.014h0l-.073-1.017c-.049-.678-.1-1.356-.181-2.032l.058-.021h0A.947.947,0,0,0,59.744,85.091Zm-.633.252c-.08.959-.125,1.922-.184,2.883l-1.211-.065-.606-.034a8.306,8.306,0,0,0-2.569-.061A2,2,0,0,1,55.32,86.2C56.438,85.368,57.861,85.664,59.111,85.344Zm4.138-8.573c-1.8-1.033-6.329-2.089-6.615,1.157a3.431,3.431,0,0,0,2.275,3.283l.049.02c1.216.5,3.372,1.065,4.424-.02.876-.9-.286-2.52-1.374-1.781-.559.38-1.737.1-2.361-.081l-.039-.011c-.674-.2-1.572-.832-1.293-1.661.246-.734,1.3-.868,1.952-.891a25.931,25.931,0,0,1,2.906.267A.153.153,0,0,0,63.249,76.771Zm-7.471-5.219c-2.448-.115-3.971,2.558-3.408,4.748a.965.965,0,0,0,.928.706L53.4,77a.909.909,0,0,0,.153-.025.971.971,0,0,0,.706-.928l-.007-.122c-.057-1.035.055-2.226,1.284-2.477,1.043-.213,1.625.791,1.637,1.715a.223.223,0,0,0,.332.19,1.734,1.734,0,0,0,.6-2.157A2.533,2.533,0,0,0,55.778,71.551Zm18.165.573a3.918,3.918,0,0,0-4.566,1.93.674.674,0,0,0-.563.678,1.9,1.9,0,0,0,.508,1.227,1.111,1.111,0,0,0,1.832-.452l.01-.034a1.828,1.828,0,0,1,2.3-1.27c1.136.4,1.1,1.6,1.9,2.3a.275.275,0,0,0,.318.041c.846-.409.694-1.64.393-2.345A3.7,3.7,0,0,0,73.944,72.125Zm2.426-5.409c-1.443-1.473-5.208-2.9-6.2-.178a1.082,1.082,0,0,0,.752,1.324,20.218,20.218,0,0,0,2.544-.139,3.832,3.832,0,0,1,2.019.733c1.573,1.219,1.919,3.28,3.015,4.831a.09.09,0,0,0,.167-.045A8.587,8.587,0,0,0,76.37,66.715Zm-18.826-1.45a4.836,4.836,0,0,0-3.006-.009,5.839,5.839,0,0,0-2.546,1.627A6.48,6.48,0,0,0,51.162,68c-.123.212-.252.65-.391.911a1.353,1.353,0,0,0-.4,2.135l.03.031.09.09a1.454,1.454,0,0,0,1.406.372c1.109-.321,1.244-1.195,1.628-2.122a3.8,3.8,0,0,1,1.215-1.553,5.842,5.842,0,0,1,4.786-.8c.08.024.174-.078.117-.152a4.548,4.548,0,0,0-.828-.967A4.424,4.424,0,0,0,57.544,65.265Z" transform="translate(-50 -64.999)" fill-rule="evenodd"/>
    </g>
  </g>
</svg>
