<svg xmlns="http://www.w3.org/2000/svg" width="184.08" height="288.865" viewBox="0 0 184.08 288.865">
  <g id="Group_118" data-name="Group 118" transform="translate(-522 -2957)">
    <g id="pose_sitting_one_leg_up-1" data-name="pose/sitting/one_leg_up-1" transform="translate(422 3096.743)">
      <path id="Fill-1" d="M207.883,50.846a15.165,15.165,0,0,1-1.868,9.1l-.5.866.953.333a17.645,17.645,0,0,0,5.894.9,50.673,50.673,0,0,0,6.606-.577l1.229-.165-.6-1.068a7.325,7.325,0,0,1-.671-3c-.026-.3-.052-.6-.087-.9-1.819-16.259-4.118-32.73-6.342-48.659-.585-4.192-1.19-8.526-1.777-12.789l-1.684.065c-.453,7.892-.893,15.917-1.318,23.677q-.28,5.119-.562,10.238a84,84,0,0,0,.731,21.978m.687,97.5a35.83,35.83,0,0,1-7.363-.765c-7.552-1.585-14.412-5.325-20.25-8.706-.3-.169-.6-.338-.911-.512-2.286-1.279-5.13-2.87-6.912-4.811-1.955-2.129-2.292-4.251-1.059-6.677l.2-.384-.2-.38a6.8,6.8,0,0,1,.231-7.15l1.187-1.54-1.952.207c-1.968.209-3.952.492-5.87.765-2.129.3-4.33.618-6.5.828l-.6.059-.139.58c-.077.323-.172.519-.841.519a11.682,11.682,0,0,1-2.184-.35,15.889,15.889,0,0,0-3.3-.476,5.955,5.955,0,0,0-1.354.144l-.244.056-.173.178a.706.706,0,0,1-.492.184.613.613,0,0,1-.372-.111l-.273-.214-.347.038a66.339,66.339,0,0,0-15.931,3.56l-.021.008-.1.044a13.751,13.751,0,0,1-5.031,1.484,4.023,4.023,0,0,1-2.975-1.246l-.245-.24-.345,0c-3.5-.032-5.1-4.115-5.322-6.851l-.028-.345-.267-.224c-6.1-5.12-9.7-12.152-11.012-21.5-1.192-8.513-.277-17.489.776-25.146,2.435-19.844,4.974-37.634,11.429-54.506l.3-.789-.8-.289a19.021,19.021,0,0,1-6.514-3.654l-.11-.1-.139-.057c-2.286-.939-3.406-4.407-3.695-5.447l-.023-.084-.04-.077a5.174,5.174,0,0,1-.3-3.415l.03-.137-.017-.14a8.171,8.171,0,0,1,.879-3.818c.242-.612.492-1.246.675-1.876.628-1.8,1.255-3.636,1.862-5.409,1.362-3.979,2.769-8.094,4.269-12.1l.205-.547-.452-.377c-.771-.644-.514-1.4.6-3.216a13.452,13.452,0,0,0,.7-1.233,83.686,83.686,0,0,1,4.542-7.03l.033-.045.026-.049c8.152-15.225,22.612-23.609,40.716-23.609h.369l.2-.123c3.393-2.04,5.815-5.542,7.4-10.7l.051-.165-.02-.171a11.84,11.84,0,0,1-.094-1.7,5.126,5.126,0,0,1,1.648-3.753c1.889-1.617,4.757-1.752,7.532-1.752h.4c3.548.011,6.054.627,7.884,1.94,2.127,1.525,3.3,3.988,3.593,7.528.087,1.059.084,2.157.081,3.218v.3l.036.118a20.913,20.913,0,0,0,.888,2.4l.344.775.781-.349a5,5,0,0,1,1.959-.355c.234-.005.463-.008.694-.008,1.888,0,3.907.172,5.86.339,1.472.126,2.993.256,4.466.313h.315c3.58,0,6.175.563,8.167,1.772,2.145,1.3,3.687,3.39,4.853,6.574,6.255,18.248,8.827,37.9,11.1,55.244,1.287,9.068,1.678,18.365,2.056,27.356.4,9.49.813,19.3,2.275,28.894l.116.758.777-.05c3.418-.221,7.112-.7,11.022-1.2A143.472,143.472,0,0,1,265.3,57.009c8.3,0,14.6,1.634,19.246,4.995a15.634,15.634,0,0,1,4.845,11.952c-.1,6.738-3.661,14.186-9.079,18.977l-.02.019c-6.848,6.47-19.349,12.081-37.154,16.678a326.227,326.227,0,0,1-41.948,7.518l-2.138.246,1.735,1.255c.7.508,1.343.955,1.959,1.367l.4.266.435-.2a6.169,6.169,0,0,1,2.473-.689c.393,0,.867.085.893.492a.688.688,0,0,1-.573.712l-2.125.265,1.735,1.237c1.159.827,2.888,1.823,4.891,2.977,6.551,3.774,16.451,9.479,14.748,14.488l-.112.329.158.31a2.758,2.758,0,0,1,.119,2.545c-.808,1.748-3.337,3.075-5.484,3.615l-.037.009-.036.013a35.345,35.345,0,0,1-11.657,1.962" transform="translate(-6.013)" fill="#fff" fill-rule="evenodd"/>
      <path id="_-Ink" data-name="ðŸ–-Ink" d="M195.369,135.926a.77.77,0,0,0,.126-1.012c-.932-1.191-2.867-.377-4.07-.1-.454-.378-.906-.757-1.34-1.157.151-.937-.975-1.559-1.437-2.282a12.15,12.15,0,0,0-1.426-1.583c-1.327-1.035-3.167-.335-4.707-.382-1.186-1.509-2.408-2.971-3.536-4.53a10.329,10.329,0,0,0,.961-7.183c19.951-7.57,37.22-21.9,58.8-25.216a1.381,1.381,0,0,0,.973-1.687c-1.505-3.592-23.134,5.676-26.368,7.355-9.536,4.566-18.468,10.258-27.736,15.279a27.111,27.111,0,0,1-6.172,2.112c-3.247-10.658-8.74-20.427-12.952-30.7a10.607,10.607,0,0,0,.7-1.483c-.14,5.651,5.356,5.572,6.115.211-.313,2.794,1.8,8.779,4.85,4.852a7.07,7.07,0,0,0,1.09-3.524q.235,1.321.532,2.632c.783,1.731,2.92-.374,3.416-1.277a1.69,1.69,0,0,0,.751-.342c5.393.749,11.745.706,15.7-3.552,6.712,2.575,14.14.268,20.928-.76,13.813-1.588,27.681-4.009,41.618-3.824,6.222.361,13.563,1.366,17.5,6.675,5.049,7.654,2.195,17.99-3.374,24.616-13.4,16.962-59.382,24.337-80.942,26.864m.377,6.11c.244-.065.489-.125.734-.182,3.91,3.256,22.326,11.71,20.925,16.759-.5.628-1.68.771-2.429.974-1.3.353-2.622.659-3.952.9a34.2,34.2,0,0,1-13.047.026,17.1,17.1,0,0,1-4.445-1.566c-4.649-2.045-9.77-4.3-14.4-6.333-5.878-2.33-16.188-6.923-11.948-14.672,4.018,4.519,9.117,4.124,11.686-1.492.886-1.7,1.659-4,3.74-4.692a2.779,2.779,0,0,1,3.418-.069,1.354,1.354,0,0,0,.158-.375,44.233,44.233,0,0,0,3.137,4.366c-.416.022-4.747,3.228-3.469,3.229a22.475,22.475,0,0,1,4.726-1.879,37.262,37.262,0,0,0,3.9,3.377,15.923,15.923,0,0,0-3.49,3.125.117.117,0,0,0,.142.181,31.316,31.316,0,0,1,4.614-1.676m19.822,21.835c-14.957,6.719-30.792-.763-43.547-8.739-2.944-1.644-6.816-3.974-6.221-7.844,2.168,3.172,5.743,4.979,9.173,6.545,5.764,2.605,11.566,5.127,17.344,7.7.546,1.81,3.155,1.88,4.733,2.282a37.578,37.578,0,0,0,21.175-2.03c-.382,1.132-1.634,1.652-2.658,2.086M155.893,137.71c-.369.047-.739.09-1.109.132a1.1,1.1,0,0,0-.731-1.13,10.253,10.253,0,0,0,.178-3.16c.618,1.6,2.613,1.112,3.879.652q2.715-.738,5.4-1.585a27.085,27.085,0,0,0,2.371,3.788c-3.343.3-6.655.888-9.986,1.3m-1.471-5.022a1.519,1.519,0,0,0-.219.612,10.04,10.04,0,0,0-.535-2.279l.753,1.667m-2.11-4.164c-1.645-2.144-4.685-3.9-7.495-3.3a.19.19,0,0,0,0,.366c3.775.513,7.09,3.507,7.221,7.378.3,1.752-.921,3.472-.511,5.154l-.244.015a2.6,2.6,0,0,1-.092.3.432.432,0,0,1,.047.841,4.75,4.75,0,0,1-.886.121,36.3,36.3,0,0,1-4.634-1.126c-1.456-.643-1.092-2.451-1.605-3.7a37.383,37.383,0,0,0-1.356-4.267.1.1,0,0,0-.2.026,48.82,48.82,0,0,0-.279,8.361c-.505.052-1.007.109-1.511.171.033-.778-2.3-10.259-3.532-7.826a40.845,40.845,0,0,1,.76,8.222,64.542,64.542,0,0,0-10.752,2.718c-2.467.748-5.4,2.96-7.8.96-1.855-1.534-2.48-4.21-2.3-6.488C119.55,122.974,138.6,121.4,149.849,122.4q1.593,3.677,3.24,7.331a9.083,9.083,0,0,0-.779-1.2m-38.359,7.662c-.206-3.06.309-6.869,2.576-9.149,5.188-4.387,12.453-5.767,18.936-7.355a70.676,70.676,0,0,1,9.155-1.189c1.09-.086,2.476.161,3.246-.731q.595,1.409,1.2,2.815c-12.907-1.691-39.836,4.184-32.3,21.866a10.167,10.167,0,0,1-2.818-6.257m64.126-10.114a18.807,18.807,0,0,0,2.27,4.189,8.143,8.143,0,0,0-2.58,2.871c-3.978,10.408-8.232,4.833-13.518-.752,4.473-1.688,10.4-2.953,13.829-6.308m-66.214,8c-10.344-10.219-12.352-27.242-8.53-40.623.34-4.962,2.075-9.691,3.63-14.389A217.493,217.493,0,0,1,126.231,38.15c9.687,2.661,19.357,5.393,29.066,7.966a27.52,27.52,0,0,0,4.049.948c.491.313.983.657,1.494.96-.743,3.642-.058,7.36.116,11.025a45.454,45.454,0,0,1-.536,8.564c-.427,4.152-2.186,17.657,1.339,20.129,1.195.577,2.263-1.131,2.778-.661a5.685,5.685,0,0,0,1.25-1.209c1.361,4.4,3.586,8.486,4.96,12.892,1.828,6.475,7.832,16.956,6.5,23.133-1.031,3.814-5.542,4.637-8.8,5.883-3.762,1.309-7.567,2.511-11.433,3.486-1.887-4.006-3.692-8.05-5.462-12.109-8.091-18.727-15.257-37.844-21.662-57.189-.12-.429-1.593-5.082-1.862-3.784-.023-.133-.19-.478-.254-.183,1.086,4.542,2.188,9.083,3.38,13.6-2.928-.41-6.077-.57-8.757.866-.138.074-.037.256.1.233,3.174-.55,6.235.489,9.284,1.235a417.763,417.763,0,0,0,15.652,42.8c-1.808-.577-3.907.061-5.795.107a73.91,73.91,0,0,0-17.437,3.938c-7.059,2.289-12.05,5.273-12.336,13.284M106.169,27.72c-1.738-1.872-3.1-4.262-2.839-6.8,1.044-1.392,1.389-3.208,2-4.818,2.377-6.734,4.583-13.519,7.17-20.18a94.535,94.535,0,0,1,16.023,6.389q1.409.719,2.787,1.492c.962.539,2.012,1.476,3.165,1.208-1.261,1.786-3.858,3.643-4.3,5.707a.919.919,0,0,0,1.079,1.113c11.129,7.905,22.621,15.643,33.14,24.449,7.877,6.236,13.924,11.294,16.626,21.413,1.821,6.554,1.827,13.4,1.559,20.144-.052,1.31-.054,2.651-.159,3.97.158.987-.142,2.994-1.251,3.031a1.489,1.489,0,0,0,.23.654c-.035.047-.072.092-.11.138-.055-.27-.109-.538-.159-.807a50.036,50.036,0,0,1-.835-12.332c.061-1.167-1.729-1.139-1.83,0l-.808,9.232c-.323,1.994.186,4.6-1.408,6.118-1.621-1.5-1.085-4.452-1.006-6.385.127-3.153.264-6.3.381-9.457.037-1-1.618-1.256-1.806-.24q-.8,4.344-1.727,8.662c-.374,1.113-.63,6.107-2.5,5.24-1.113-.76-.31-5.216-.457-6.692.069-2.921.11-5.837.324-8.751.087-1.176-1.827-1.426-2.089-.278-.426,1.858-.834,3.716-1.2,5.586-.811,3.153-.516,7.427-3.445,9.522-1.147-8.19.5-16.323.735-24.484-.138-2.644-.592-5.262-.993-7.874-.443-2.889-.7-6.033.336-8.819-.284-1.248-1.4,2.127-1.5,2.408-.839-1.654-2.883-1.781-4.5-2.3-3.593-1.163-7.273-2.04-10.908-3.074q-14.461-4.016-28.946-7.944c-3.857-1.067-7.917-2.33-10.776-5.245m96.537,43.563a83.856,83.856,0,0,1-.725-21.806c.625-11.305,1.231-22.613,1.88-33.917,2.817,20.459,5.82,40.9,8.117,61.42a10.8,10.8,0,0,0,.859,4.214c-3.984.534-8.23,1.071-12.1-.283a15.964,15.964,0,0,0,1.972-9.628M222.834,20.5c3.012,19.391,1.294,39.122,4.215,58.491-4.053.454-8.074,1.127-12.085,1.866.439-2.393-.393-4.863-.537-7.273-2.178-17.186-4.583-34.36-7.77-51.4-.782-4.077-1.571-8.137-2.477-12.192.137-2.455.257-4.911.336-7.367a40.519,40.519,0,0,1,14.566-5.487c1.394,7.765,2.786,15.524,3.752,23.358M187.971-40.436c-.176-.3-.344-.61-.505-.923a12.714,12.714,0,0,1,1.611.129c-.024.863.024,1.733.034,2.6a16.872,16.872,0,0,0-1.14-1.809M278.931,81.08c-12.864-9.354-33.992-3.395-48.894-2.433-2.841-18.63-1.681-37.563-4.329-56.223-2.439-18.642-5.01-37.544-11.135-55.4-2.528-6.906-6.9-8.957-14.1-8.9-3.654-.143-7.517-.728-11.068-.645a5.915,5.915,0,0,0-2.3.43,23.833,23.833,0,0,1-1.794-7.024.138.138,0,0,0-.269-.035,11.465,11.465,0,0,0-.47,6.581c.329,1.573,2.285,7.763,4.558,5.341.18,5.079-.935,11.144-5.911,13.78-8.694,3.791-20.711.339-25.747-7.706-.973-1.608-1.813-3.318-2.89-4.862,7.509-2.126,11.724-11.123,9.955-17.975-1.093,5.329-3.087,11.283-8.051,14.268-18.076-.04-33.1,8.193-41.6,24.05a84.347,84.347,0,0,0-4.606,7.13c-.758,1.629-2.976,3.893-1.093,5.466-2.175,5.805-4.1,11.691-6.145,17.543-.56,1.95-1.841,3.995-1.586,6.044a6,6,0,0,0,.37,3.971c.6,2.165,1.949,5.077,4.185,6a20.014,20.014,0,0,0,6.8,3.825c-6.674,17.441-9.214,36.251-11.476,54.679-2.216,16.121-3.36,35.732,10.526,47.383.269,3.334,2.247,7.581,6.157,7.618,2.708,2.659,6.009,1.2,9.024-.1a65.949,65.949,0,0,1,15.727-3.512,1.571,1.571,0,0,0,2-.147c3.212-.741,7.664,2.258,8.313-.459,4.142-.4,8.238-1.155,12.376-1.594a7.626,7.626,0,0,0-.3,8.043c-3.345,6.58,4.446,10.39,9.21,13.089,6.431,3.724,13.147,7.258,20.5,8.8a36.526,36.526,0,0,0,19.479-1.225c3.278-.824,7.857-3.529,5.912-7.341,2.466-7.253-14.851-14.769-19.945-18.4,2.082-.26,2.158-4.581-3.257-2.1-.655-.438-1.3-.889-1.934-1.349,21.9-2.518,63.737-9.445,79.59-24.418,8.709-7.7,13.734-23.273,4.214-32.184" transform="translate(0 -19.759)" fill-rule="evenodd"/>
    </g>
    <g id="Group_116" data-name="Group 116" transform="translate(-1234 941)">
      <path id="_-Background" data-name="ðŸŽ¨-Background" d="M103.995,69.531c-.967-3.482-.828-3.859-2.269-7.185-4.778-9.664-36.707-6.428-39.965,3.218-1.768,5.233-1.353,12.6-1.813,17.141q-.211,3.609-.422,7.218-.074,1.246-.151,2.492-.149,2.426-.286,4.852c-.6,4.984,1.9,5.49,6.2,5.343a17.667,17.667,0,0,0,5.247,6.888c-.548,1.492,1.44,2.264,2.513,2.861,5.837,3.259,13.007,5.247,19.472,3.414,1.9-.538,9.744-2.4,12.157-8.176,1.185-2.835,3.592-17.516.417-30.723Z" transform="translate(1747.573 1969.254)" fill="#fff" fill-rule="evenodd"/>
      <path id="_-Ink-2" data-name="ðŸ–-Ink" d="M70.635-14.931a2.161,2.161,0,0,1,2.43.788,1.744,1.744,0,0,1,.217.574,20.856,20.856,0,0,1,7.548-.251,1.154,1.154,0,0,1,.684,1.681c-.034.059-.068.116-.105.172a13.148,13.148,0,0,1,2.359.411A1.2,1.2,0,0,1,84.6-10.1c-.022.052-.045.1-.068.156a7.763,7.763,0,0,1,3.427,1.467,1.506,1.506,0,0,1,.331.346,11.481,11.481,0,0,1,6.7,1.322,1.3,1.3,0,0,1,.462,1.761c-.122.173-.249.339-.385.5a4.188,4.188,0,0,1,2.21,1.729A4.038,4.038,0,0,1,97.719.371a2.928,2.928,0,0,1,.755,2.684,2.652,2.652,0,0,1-1.5,1.865,1.318,1.318,0,0,1-.306,1.311,5.169,5.169,0,0,1-1.8,1.213,1.14,1.14,0,0,1-.132.519,4.083,4.083,0,0,1-3.229,2.043c.445,1.87.811,3.763,1.166,5.645C93.3,19,93.792,22.38,94.09,25.774l.036.42a61.544,61.544,0,0,1-.57,17.426,14.115,14.115,0,0,1-6.011,8.708,20.239,20.239,0,0,1-10.48,3.3,22.553,22.553,0,0,1-5.61-.46A15.351,15.351,0,0,1,68.91,54.4a9.648,9.648,0,0,1-2.381-1.474.676.676,0,0,1,.3-1.124c.332-.067.66-.139.99-.2a.5.5,0,0,1,.571.527l.64.165q.32.082.639.168l.318.087a25.738,25.738,0,0,0,2.76.618,20.325,20.325,0,0,0,5.757.075A17.217,17.217,0,0,0,87.444,49.6a12.121,12.121,0,0,0,2.969-3.666,16.51,16.51,0,0,0,1.453-5.793,82.686,82.686,0,0,0-.057-17.273c-.262-2.863-.62-5.72-1-8.571-.2-1.462-.406-2.926-.579-4.393a3.14,3.14,0,0,1-1.086-.526,1.092,1.092,0,0,1-.413-.567,1.426,1.426,0,0,1-.884-.556l-.03-.041A5.381,5.381,0,0,0,85.2,6.473c-.587-.221-1.186-.414-1.781-.611a10.388,10.388,0,0,0-1.927-.59c-.739-.087-1.483.135-2.229.056a2.838,2.838,0,0,1-1.762-.8,2.6,2.6,0,0,1-.436-.575c-2.274.486-4.663-.127-7.026.02-1.554.1-2.926,1.06-4.5,1.034a1.8,1.8,0,0,1-1.146-.421,34.49,34.49,0,0,0-4.382,1.293c-1.377.462-2.7,1.083-4.062,1.587,0,0,0,0,0,0a1.062,1.062,0,0,1-1.272.723c-1.845-.329-3.4-1.493-5.2-1.919-.494,1.8-1.026,3.58-1.389,5.417a53.912,53.912,0,0,0-.8,5.614c-.172,1.889-.254,3.8-.258,5.693,0,.967.023,1.937.056,2.9a7.183,7.183,0,0,1-.112,2.614l-.026.066h0a.171.171,0,0,1-.285.077,5.323,5.323,0,0,1-.835-2.46c-.186-.975-.3-1.96-.4-2.948A40.351,40.351,0,0,1,45.3,17.3,41.179,41.179,0,0,1,47.469,5.544c-.413.038-.6-.57-.624-.912a8.908,8.908,0,0,1,.173-2.111l.122-.715a12.113,12.113,0,0,1,.469-1.99,16.839,16.839,0,0,1,2.334-4.4,17.606,17.606,0,0,1,8-6.019.8.8,0,0,1,.555-.017,43.112,43.112,0,0,1,9.175-3.618C68.647-14.5,69.638-14.753,70.635-14.931ZM46.576,29.11c1.315-.825,4.029-1.041,4.763.717.03.071-.055.134-.117.117l-.179-.045a3,3,0,0,0-1.992.014,3.866,3.866,0,0,0-1.636,1.173,6.723,6.723,0,0,0-.987,4.522l0,.074c.085,1.348.43,2.99,1.748,3.656a4.449,4.449,0,0,0,2.116.307,7.887,7.887,0,0,1,2.46.339.646.646,0,0,1,.283,1.069,3.807,3.807,0,0,1-.382.315c.4.426.794.858,1.175,1.313.646.772,1.333,1.517,2.05,2.224A18.8,18.8,0,0,0,58.1,46.813a18.322,18.322,0,0,1,2.551,1.736,1.167,1.167,0,0,1,0,1.61c-.966,1.188-2.611-.061-3.535-.763l-.112-.085a16.112,16.112,0,0,1-2.65-2.434,13.223,13.223,0,0,1-1.985-3.069,7.447,7.447,0,0,1-.59-1.938,5.633,5.633,0,0,1-5.244-.523C44.561,40,44.007,37.528,44,35.271v-.134C44.015,32.944,44.591,30.354,46.576,29.11Zm3.747,3.179h.061a4.126,4.126,0,0,1,2.005.642l.064.038c.6.359,1.47.647,1.789,1.319a1.031,1.031,0,0,1-.156,1.206,1.647,1.647,0,0,1-2.168.033c-.488-.356-.809-.89-1.287-1.251a3.016,3.016,0,0,0-3.252-.053c-.057.037-.113-.033-.088-.087a3.273,3.273,0,0,1,3.03-1.847Z" transform="translate(1760.523 2031)" fill-rule="evenodd"/>
    </g>
    <g id="face_Contempt" data-name="face/Contempt" transform="translate(587 2991)">
      <path id="_-Ink-3" data-name="ðŸ–-Ink" d="M73.779,87.647a4.482,4.482,0,0,1-2.509,1.446,5.324,5.324,0,0,1-3.066-.137l-.082-.033A3.179,3.179,0,0,1,66.461,87.4a1.09,1.09,0,0,1-.068-.737,1.079,1.079,0,0,1,.462-.575.388.388,0,0,1,.283-.039.6.6,0,0,1,.32.158,2.4,2.4,0,0,0,1.7.852,2.887,2.887,0,0,0,1.413-.461l.3-.173a3.227,3.227,0,0,1,.92-.393,2.187,2.187,0,0,1,1.764.49,1.044,1.044,0,0,1,.37.577A.683.683,0,0,1,73.779,87.647ZM70.673,75.788c1.187.721,3,2.4,1.718,4.192-1.5,1.577-3.667-.231-4.733-1.049-.989-.634-2.1,1-1.182,1.736,7.7,5.7,10.831-4.691,4.8-5.727C70.609,74.825,70.362,75.565,70.673,75.788ZM57.284,64.7l.341-.093.348-.094.235-.062a14.236,14.236,0,0,1,5-.613,1.18,1.18,0,0,1,1.141,1.007,1.151,1.151,0,0,1-.832,1.274c-1.881.3-3.806.206-5.7.519-.941.156-1.875.35-2.812.524-.713.133-1.449.18-2.168.287l.165.023c.058.008.043.105-.014.1a4.2,4.2,0,0,0-.712-.011l-.1.008a.141.141,0,0,1-.108-.257,16.993,16.993,0,0,1,2.6-1.676A18.357,18.357,0,0,1,57.284,64.7Zm14.7-.911c1.242-1.255,3.882-.773,5.359-.2a7.109,7.109,0,0,1,2.312,1.362l.065.061.1.1a2.281,2.281,0,0,1,.882,1.684.24.24,0,0,1-.173.227,3.566,3.566,0,0,1-1.719-.4l-.362-.124a16.528,16.528,0,0,0-1.65-.49,9.052,9.052,0,0,0-2.122-.241,5.426,5.426,0,0,1-2.188-.074A1.159,1.159,0,0,1,71.985,63.789ZM59.719,73.912a1.324,1.324,0,0,1-1.271.4A4.324,4.324,0,0,1,56.6,73.156a3.055,3.055,0,0,1-.9-1.639.407.407,0,0,0-.206-.3.514.514,0,0,0-.308-.059.745.745,0,0,0-.288.094.449.449,0,0,0-.233.318,3.747,3.747,0,0,0,.8,2.642,5.613,5.613,0,0,0,2.529,2.008,3.365,3.365,0,0,0,3.174-.717,5.671,5.671,0,0,0,1.385-2.273l.064-.162c.075-.19.148-.378.227-.564a1.006,1.006,0,0,0-.046-.947,1.206,1.206,0,0,0-.826-.535,1.235,1.235,0,0,0-.934.2,1.215,1.215,0,0,0-.478.814,3.713,3.713,0,0,1-.789,1.829Zm19.225-3.645a.9.9,0,0,0-.755-.09,1.074,1.074,0,0,0-.443.264.882.882,0,0,0-.246.445,1.824,1.824,0,0,1-.64,1.065,1.284,1.284,0,0,1-1.021.269,1.959,1.959,0,0,1-1.1-.659,2.109,2.109,0,0,1-.2-.288l-.036-.06a2.46,2.46,0,0,0-.456-.6.445.445,0,0,0-.282-.106.426.426,0,0,0-.126.02,1.319,1.319,0,0,0-.486,1.057,1.93,1.93,0,0,0,.357.982,3.885,3.885,0,0,0,2.074,1.476,3.088,3.088,0,0,0,2.429-.524,3.443,3.443,0,0,0,1.407-2.153,1.148,1.148,0,0,0-.058-.636A.888.888,0,0,0,78.944,70.267Z" transform="translate(-52 -63)" fill-rule="evenodd"/>
    </g>
  </g>
</svg>
